<?xml version="1.0" encoding="UTF-8" standalone="no"?>
<!-- Created with Inkscape (http://www.inkscape.org/) -->

<svg
   xmlns:dc="http://purl.org/dc/elements/1.1/"
   xmlns:cc="http://creativecommons.org/ns#"
   xmlns:rdf="http://www.w3.org/1999/02/22-rdf-syntax-ns#"
   xmlns:svg="http://www.w3.org/2000/svg"
   xmlns="http://www.w3.org/2000/svg"
   xmlns:sodipodi="http://sodipodi.sourceforge.net/DTD/sodipodi-0.dtd"
   xmlns:inkscape="http://www.inkscape.org/namespaces/inkscape"
   version="1.1"
   id="svg3843"
   width="860"
   height="865.33331"
   viewBox="0 0 860 865.33331"
   sodipodi:docname="Screenshot 2020-02-25 at 10.33.48.svg"
   inkscape:version="0.92.2 5c3e80d, 2017-08-06">
  <metadata
     id="metadata3849">
    <rdf:RDF>
      <cc:Work
         rdf:about="">
        <dc:format>image/svg+xml</dc:format>
        <dc:type
           rdf:resource="http://purl.org/dc/dcmitype/StillImage" />
        <dc:title></dc:title>
      </cc:Work>
    </rdf:RDF>
  </metadata>
  <defs
     id="defs3847" />
  <sodipodi:namedview
     pagecolor="#ffffff"
     bordercolor="#666666"
     borderopacity="1"
     objecttolerance="10"
     gridtolerance="10"
     guidetolerance="10"
     inkscape:pageopacity="0"
     inkscape:pageshadow="2"
     inkscape:window-width="1680"
     inkscape:window-height="947"
     id="namedview3845"
     showgrid="false"
     inkscape:zoom="0.84822806"
     inkscape:cx="430"
     inkscape:cy="432.66666"
     inkscape:window-x="0"
     inkscape:window-y="1"
     inkscape:window-maximized="1"
     inkscape:current-layer="svg3843" />
  <path
     style="fill:#000000;stroke-width:0.66666669"
     d="m 426.73535,845.36583 c -2.6956,-1.07587 -6.83527,-3.9392 -13.83085,-9.56653 -5.57007,-4.48067 -10.48931,-6.71467 -22.50249,-10.21927 -5.40624,-1.5772 -13.953,-3.78487 -17,-4.3912 -1.46666,-0.29187 -4.31666,-0.88607 -6.33333,-1.32047 -2.01667,-0.43433 -5.16667,-1.06366 -7,-1.39846 -1.83333,-0.3348 -5.88333,-1.10534 -9,-1.71234 -8.10647,-1.57873 -26.95201,-1.5554 -32,0.0393 -4.54825,1.43706 -7.08902,2.32953 -9.66667,3.39546 -5.97104,2.46914 -8.06712,2.97294 -12.36898,2.97294 -5.53847,0 -9.5918,-1.7524 -13.35935,-5.77574 -2.12641,-2.2708 -6.605,-9.00353 -6.605,-9.9294 0,-0.81153 -5.7431,-8.15906 -8.23069,-10.53013 -4.9249,-4.69406 -17.56704,-13.87086 -28.80783,-20.91126 -5.54181,-3.47067 -21.61811,-12.8532 -22.02356,-12.8532 -0.12915,0 -1.81801,-0.7098 -3.75303,-1.57727 -11.63134,-5.21453 -15.29504,-6.03987 -27.18489,-6.124 -5.68333,-0.04 -11.73302,-0.30413 -13.44375,-0.58653 -4.16702,-0.6878 -9.08677,-4.02367 -11.60099,-7.86607 -1.95569,-2.9888 -2.61317,-5.20427 -5.33152,-17.9652 -1.81304,-8.51113 -6.45935,-16.59567 -19.62488,-34.14727 -9.53842,-12.71613 -13.32722,-17.26293 -20.72208,-24.86766 -9.36128,-9.62698 -17.283297,-14.98506 -26.276777,-17.77237 -12.204553,-3.7825 -17.392966,-7.70327 -19.625793,-14.83076 -0.94534,-3.01768 -0.705493,-10.00866 0.626567,-18.26287 1.135266,-7.03477 0.370486,-15.19105 -2.430887,-25.92516 -1.302587,-4.99116 -2.602813,-9.97484 -2.8894,-11.07484 -0.722733,-2.77411 -3.335547,-10.99007 -4.125373,-12.97217 -0.35918,-0.90136 -1.252454,-3.45136 -1.985065,-5.66667 -0.73261,-2.21531 -1.574661,-4.62783 -1.871224,-5.36116 -0.296563,-0.73333 -1.066535,-2.68333 -1.711048,-4.33333 -6.188465,-15.84291 -12.27605,-24.40164 -23.987777,-33.72516 -4.51067,-3.59088 -6.393646,-5.56559 -8.526106,-8.94151 -1.252143,-1.98228 -1.466198,-3.23604 -1.422742,-8.33333 0.05266,-6.17723 0.616597,-8.01101 4.407837,-14.33333 5.864761,-9.78015 7.572535,-16.36372 9.338378,-36 1.150893,-12.798 1.138447,-39.95491 -0.02169,-47.33333 -1.64266,-10.44721 -4.369704,-17.47108 -10.568504,-27.2206 -3.075129,-4.8366 -4.457841,-9.07616 -4.385367,-13.44607 0.112635,-6.79147 3.241536,-11.73484 11.698502,-18.48251 8.154158,-6.50608 14.558779,-16.87742 23.1682,-37.51749 0.841195,-2.01667 1.780407,-3.95167 2.087138,-4.3 0.306729,-0.34833 0.557691,-1.05299 0.557691,-1.56591 0,-0.51292 0.409254,-1.87792 0.909454,-3.03333 3.601339,-8.31876 7.106299,-18.65427 9.154166,-26.99405 1.650713,-6.72242 1.749846,-20.73076 0.187286,-26.46664 -0.61418,-2.25456 -1.10584,-6.71312 -1.13656,-10.30673 -0.06267,-7.33408 0.726714,-9.42001 5.182187,-13.69348 2.633947,-2.52635 4.495073,-3.46545 16.808707,-8.48143 2.257886,-0.91975 5.854726,-2.83166 7.99298,-4.24869 4.82737,-3.1991 20.36222,-18.23349 28.10347,-27.1981 3.18765,-3.69139 5.96397,-6.86163 6.1696,-7.04497 3.26879,-2.91439 13.76348,-17.61276 16.61381,-23.2685 2.99995,-5.95266 5.99292,-16.38568 6.00702,-20.93956 0.0172,-5.55596 3.40354,-12.76434 7.63489,-16.25218 3.76208,-3.10102 8.32959,-4.20527 17.43158,-4.2143 5.50007,-0.005 9.47849,-0.39051 12.9414,-1.25258 4.81935,-1.19973 5.82551,-1.552 11.66667,-4.08461 1.46667,-0.63592 4.31667,-1.85371 6.33333,-2.7062 5.02268,-2.12321 19.73252,-9.690167 26.929,-13.852677 3.26095,-1.88616 6.01474,-3.42938 6.11952,-3.42938 0.1048,0 2.08674,-1.25032 4.40434,-2.77849 13.17708,-8.68866 19.88194,-15.67355 25.26266,-26.31777 3.0846,-6.102 7.44348,-11.21674 11.34995,-13.3181 3.33184,-1.79225 12.96819,-1.59109 17.93453,0.37438 9.96657,3.94436 11.67877,4.24914 23.56841,4.19536 10.75393,-0.0486 21.40515,-1.02004 35.09826,-3.20096 28.72487,-4.57505 37.4256,-8.062373 52.01884,-20.84957 5.99759,-5.255338 9.37358,-6.771518 15.07771,-6.771518 5.64433,0 9.33998,1.769275 17.54552,8.39983 3.46982,2.803807 8.11982,5.951657 10.33334,6.995221 5.93111,2.796216 16.84214,6.202775 28.69126,8.957777 8.94779,2.08042 10.7495,2.44182 26.33333,5.28208 7.52008,1.37059 26.54189,1.37845 30.33333,0.0125 1.46667,-0.52838 3.19574,-0.96522 3.84238,-0.97074 0.64664,-0.005 1.69664,-0.2955 2.33334,-0.64441 1.21364,-0.66507 4.06687,-1.9065 8.4057,-3.65731 3.86946,-1.5614 12.75996,-1.40365 16.07252,0.2852 4.63751,2.36433 7.55245,5.68988 11.98491,13.67315 2.3448,4.22321 5.20315,7.95057 8.65275,11.2834 5.17366,4.99853 25.49462,19.38799 33.59859,23.79147 1.34373,0.73015 2.89315,1.60346 3.44315,1.94068 20.12593,12.339937 33.60506,16.680217 48.4958,15.615657 6.75093,-0.48263 12.17646,0.64628 16.33633,3.39917 4.38747,2.9035 7.72847,9.45665 8.82153,17.30295 0.77887,5.59099 2.9452,12.68814 4.98554,16.33334 0.51306,0.91666 1.26506,2.26666 1.671,3 3.07586,5.55602 16.40246,23.8249 25.53146,35 10.32794,12.6427 22.3216,22.87776 30.825,26.30522 1.65,0.66506 3.94534,1.61846 5.10074,2.11866 1.15546,0.5002 2.59293,0.90945 3.19446,0.90945 2.03674,0 9.44767,3.89881 11.60467,6.10508 1.17953,1.2064 2.9136,3.81906 3.85353,5.80592 1.524,3.22147 1.6724,4.19749 1.37134,9.0174 -0.18567,2.97271 -0.6516,6.75493 -1.03547,8.40493 -1.0434,4.48549 -0.89953,15.63341 0.26627,20.62407 2.22946,9.54436 3.11453,13.11354 3.64766,14.70926 0.3062,0.91667 1.0624,3.46667 1.68027,5.66667 1.177,4.19034 4.7054,15.04535 5.6342,17.33333 0.29773,0.73334 1.04647,2.83334 1.6638,4.66667 5.74667,17.06463 13.7464,29.41151 23.9308,36.93521 2.04467,1.51048 4.93833,3.9793 6.43027,5.48627 7.5198,7.59529 7.77333,16.50526 0.79893,28.07814 -7.3274,12.15882 -9.30827,23.70815 -9.9192,57.83371 -0.27847,15.55559 -0.1578,18.58279 1.01,25.33333 0.72947,4.21667 1.6096,8.74994 1.95587,10.07393 0.8314,3.17879 5.0338,11.86696 7.5264,15.56029 5.75606,8.52879 6.9294,16.51873 3.33353,22.69911 -2.2956,3.94566 -4.32447,6.17306 -9.7156,10.66661 -2.19953,1.83329 -4.5604,3.93329 -5.24633,4.66667 -1.46494,1.56618 -5.7656,7.4665 -6.81807,9.35402 -3.5294,6.32986 -7.81727,15.44054 -11.91313,25.3127 -2.58054,6.21968 -2.76787,6.68662 -4.68134,11.66667 -0.63393,1.65 -1.4492,3.75 -1.81166,4.66667 -1.36127,3.44239 -4.36494,13.17799 -5.55347,18 -1.63333,6.62668 -1.66153,22.85875 -0.0473,27.25048 1.58846,4.32178 1.47126,14.69503 -0.20274,17.94274 -2.37166,4.60127 -7.90933,8.77111 -14.72506,11.08791 -3.7484,1.27415 -10.64927,4.41582 -12.9478,5.89462 -3.6446,2.34476 -13.76707,11.31198 -18.71887,16.58251 -21.81547,23.21973 -32.47613,37.5062 -35.99827,48.24173 -2.07206,6.31567 -3.00173,10.39827 -3.00173,13.1824 0,5.33687 -3.1358,13.14967 -6.6184,16.4896 -4.04013,3.8746 -9.4534,5.328 -19.8444,5.328 -5.98293,0 -9.4434,0.33927 -12.71233,1.2462 -11.192,3.10533 -35.45562,14.94707 -53.62484,26.17127 -11.59263,7.16146 -20.62111,16.14633 -25.16921,25.0476 -2.62476,5.13706 -5.94944,10.18953 -7.89383,11.99613 -6.02337,5.59667 -13.9129,5.9492 -26.47032,1.18267 l -6.66667,-2.53054 -13,0.016 c -8.26005,0.01 -15.91689,0.41427 -21,1.10854 -40.45392,5.5256 -50.1434,8.85946 -65.60006,22.57133 -7.66577,6.8004 -14.85331,8.80386 -21.73327,6.05787 z m 9.50554,-12.863 c 2.39948,-1.463 4.17856,-4.82887 5.81628,-11.00393 0.58347,-2.2 1.49975,-5.39027 2.03618,-7.08947 0.53643,-1.6992 0.97533,-3.70653 0.97533,-4.46067 0,-0.75413 0.27692,-1.54233 0.61537,-1.75153 0.33846,-0.20913 0.80958,-1.26447 1.04694,-2.3452 0.39744,-1.80947 2.02274,-5.57587 4.87217,-11.2904 0.6227,-1.24886 3.59277,-4.7466 6.60016,-7.77273 4.79904,-4.829 6.38943,-5.94633 13,-9.13313 8.14739,-3.92774 10.71937,-4.81654 16.86536,-5.82814 15.58522,-2.5654 29.94905,-2.49373 36.66667,0.183 11.69278,4.65914 18.71164,10.2364 27.83416,22.1174 2.26812,2.954 6.16911,7.39587 8.66886,9.87087 4.11206,4.07133 4.803,4.5 7.25351,4.5 2.19547,0 3.09143,-0.40994 4.73001,-2.164 l 2.02148,-2.164 -0.42242,-9.00267 c -0.23232,-4.95146 -0.61291,-11.52486 -0.84574,-14.6076 -0.70728,-9.3646 1.31282,-19.6706 5.30444,-27.06173 3.498,-6.47707 11.89192,-15.6218 17.66888,-19.24927 7.66622,-4.81373 19.135,-10.50133 25.7545,-12.77213 4.66924,-1.60173 6.26996,-1.8148 13.43096,-1.78767 7.92073,0.03 9.47551,0.29694 18.60136,3.1946 3.17726,1.0088 11.5486,5.4724 18,9.59754 11.7534,7.51533 17.39446,8.3888 20.1214,3.11553 1.30793,-2.52927 0.52866,-6.1698 -2.94647,-13.76527 -4.13,-9.02666 -5.01587,-10.98346 -5.58373,-12.33333 -2.00967,-4.77753 -4.5912,-15.64433 -4.5912,-19.3264 0,-1.31807 0.47086,-4.7088 1.04626,-7.53507 2.945,-14.46333 8.07854,-23.10443 22.28707,-37.51507 11.94167,-12.11152 20.9194,-15.95498 37.50673,-16.05706 8.2556,-0.0508 10.11807,0.2068 22.8692,3.16303 2.2234,0.51548 6.27647,0.93724 9.0068,0.93724 4.39254,0 5.1746,-0.19505 6.79074,-1.69365 1.37486,-1.27486 1.82653,-2.32162 1.82653,-4.2333 0,-3.23861 -2.123,-6.20763 -10.47393,-14.64802 -12.97427,-13.1132 -17.27014,-20.42398 -19.24914,-32.75836 -1.86553,-11.62688 0.5326,-23.42227 8.10214,-39.85156 0.89146,-1.93502 1.62093,-3.65473 1.62093,-3.82159 0,-0.16685 1.22933,-2.33365 2.7318,-4.81511 5.62667,-9.29285 14.00633,-15.95572 25.60153,-20.35639 5.05867,-1.91989 17.4482,-4.48868 21.6494,-4.48868 2.90347,0 10.68454,-2.01024 12.68394,-3.27691 3.98253,-2.52303 5.0034,-5.65007 2.85386,-8.74142 -2.16893,-3.11915 -2.20826,-3.14301 -17.0022,-10.30222 -17.924,-8.67391 -25.16286,-16.04936 -30.16486,-30.73403 -2.72614,-8.00337 -3.40267,-16.00214 -2.571,-30.39979 0.38793,-6.71676 1.0078,-12.9623 1.37746,-13.87896 0.3696,-0.91667 1.20367,-3.31667 1.8534,-5.33334 3.1448,-9.76082 15.1102,-22.37319 26.65334,-28.09451 1.1,-0.54521 3.8,-2.00268 6,-3.23882 2.2,-1.23614 4.86186,-2.68219 5.9152,-3.21345 1.0534,-0.53125 3.2284,-2.22413 4.83333,-3.76195 2.34187,-2.24387 2.91813,-3.25011 2.91813,-5.09532 0,-5.01922 -3.11946,-6.9515 -12.76086,-7.90445 -18.687,-1.84701 -21.64587,-2.3808 -29.17927,-5.26412 -13.78587,-5.27632 -25.21813,-19.81043 -30.7508,-39.09404 -0.3156,-1.1 -1.2482,-4.25 -2.07253,-7 -1.23867,-4.1324 -1.50187,-6.61952 -1.51674,-14.33333 -0.0207,-10.78921 0.3544,-12.31764 5.70527,-23.24394 2.0602,-4.20688 5.30587,-8.39525 16.7268,-21.58523 2.2998,-2.65605 4.75853,-6.23515 5.46387,-7.95357 1.2738,-3.10334 1.27333,-3.14015 -0.0735,-5.46255 -2.11913,-3.65394 -4.93053,-4.3205 -11.71926,-2.77852 -3.01927,0.68581 -7.2896,1.75951 -9.4896,2.38602 -4.4126,1.25659 -7.5168,1.87929 -15,3.00894 -11.93087,1.80106 -24.7414,-2.32312 -36.5408,-11.76381 -7.13854,-5.71152 -18.0234,-19.54201 -22.52174,-28.61643 -3.16446,-6.38379 -4.21906,-11.34766 -4.24706,-19.99116 -0.0313,-9.70521 1.4784,-16.55946 5.95506,-27.03528 3.572,-8.35875 4.87347,-12.71496 4.92814,-16.49468 0.046,-3.20332 -0.1712,-3.81254 -1.8882,-5.28946 -1.68014,-1.44516 -2.3746,-1.61776 -5.17474,-1.28612 -1.95573,0.23162 -4.343,1.13496 -6.03906,2.2852 -1.54274,1.0462 -5.65494,3.86172 -9.13827,6.25672 -8.07554,5.55242 -12.43021,7.94228 -18.66667,10.24431 -4.55632,1.68186 -5.7986,1.84453 -14,1.83323 -12.94734,-0.0179 -19.6644,-2.08578 -32.63278,-10.04642 -16.39112,-10.06169 -23.22646,-17.00984 -27.02132,-27.46725 -3.87442,-10.676647 -3.88128,-10.724547 -4.01249,-27.999997 -0.0741,-9.75089 -0.41949,-17.21812 -0.85713,-18.52881 -1.01368,-3.03589 -3.29406,-4.75564 -6.34136,-4.78234 -2.14852,-0.0188 -3.0075,0.45714 -5.67485,3.14449 -1.72871,1.74166 -4.31962,4.96666 -5.75758,7.16666 -6.01662,9.2051 -12.36223,16.54616 -17.90237,20.71076 -3.52574,2.65034 -5.26359,3.60044 -11.46678,6.26896 -6.24108,2.68482 -23.77434,3.65406 -31.51007,1.74188 -2.10279,-0.51978 -6.07327,-1.45239 -8.82327,-2.07247 -8.37481,-1.88837 -14.78436,-4.32449 -19.33333,-7.34813 -5.63697,-3.74682 -7.75085,-5.78232 -12.18065,-11.72903 -5.81736,-7.80943 -7.6872,-11.76622 -11.92689,-25.23863 -3.50006,-11.122093 -6.9139,-16.000001 -11.19771,-16.000001 -3.50434,0 -6.3583,4.103124 -8.57852,12.333331 -1.92471,7.13474 -3.04422,11.00429 -4.24326,14.66667 -7.98755,24.39724 -28.89553,36.58427 -62.87297,36.64793 -10.68405,0.02 -12.31883,-0.31647 -20.33333,-4.18527 -9.25464,-4.46743 -14.48877,-9.07134 -24.1771,-21.26601 -8.15754,-10.26787 -11.14742,-12.86332 -14.81818,-12.86332 -2.14853,0 -3.14975,0.41175 -4.54666,1.86981 -1.70978,1.78463 -1.79157,2.18707 -1.79518,8.83334 -0.002,3.82993 0.35164,10.03612 0.78606,13.79151 0.86789,7.50256 0.071,17.09118 -1.8981,22.838667 -4.26588,12.45146 -14.3971,23.68071 -27.80121,30.81431 -15.96567,8.49686 -22.10869,10.51902 -31.95505,10.51902 -12.17061,0 -19.59684,-2.43975 -34.12792,-11.21212 -13.46084,-8.12627 -16.51776,-9.22361 -20.56178,-7.38103 -4.29329,1.95615 -4.0144,7.04793 0.94536,17.25982 3.02388,6.22601 7.53812,17.95709 8.53365,22.17623 1.17387,4.97502 0.89989,14.14538 -0.60052,20.10044 -2.71813,10.78808 -7.63491,18.81856 -18.73077,30.59261 -13.65018,14.48448 -20.69942,18.05817 -37.2526,18.88564 -8.57442,0.42863 -11.73736,0.10266 -23.33334,-2.40471 -3.483327,-0.75319 -8.68036,-1.39671 -11.548953,-1.43004 -4.5587,-0.053 -5.419387,0.13082 -6.833334,1.45916 -1.261273,1.1849 -1.617706,2.20065 -1.617706,4.61005 0,3.47796 1.385413,5.40196 10.556833,14.66086 14.89721,15.03932 19.42114,24.24522 19.43813,39.55539 0.009,8.55081 -1.35435,15.33741 -4.78174,23.79436 -4.96498,12.25094 -5.847487,14.0637 -9.63809,19.79769 -4.949753,7.48741 -10.726467,12.17196 -20.908467,16.95545 -4.72776,2.22108 -21.034091,5.92667 -26,5.90845 -0.916666,-0.003 -3.746915,0.5214 -6.28944,1.16615 -8.590658,2.17846 -11.55449,7.35125 -6.925062,12.08634 1.171168,1.1979 5.569199,3.81201 9.833333,5.84477 11.280503,5.37753 12.600061,6.08117 17.520916,9.34286 5.727713,3.79651 9.859287,7.82873 12.91306,12.60254 7.50016,11.72463 9.738413,23.10713 8.38258,42.62908 -1.050947,15.13219 -2.853253,20.78786 -9.4679,29.71052 -6.636747,8.95248 -13.595147,13.99356 -32.898255,23.83346 -1.061922,0.54132 -3.086922,2.14038 -4.5,3.55346 -2.189268,2.18926 -2.569232,2.99572 -2.569232,5.45302 0,5.07918 2.950957,6.65333 14.666667,7.82375 19.082093,1.90632 22.578087,2.67697 30.648547,6.75607 8.378646,4.23488 16.01606,12.27233 21.548223,22.6769 1.69111,3.18054 4.84216,11.93734 6.7864,18.85949 0.61792,2.2 1.46849,4.9 1.89015,6 0.44064,1.1495 0.76764,5.82723 0.76896,11 0.002,7.12786 -0.25498,9.69338 -1.23452,12.33333 -4.64637,12.52223 -7.13278,16.51101 -17.65428,28.32153 -6.27236,7.04082 -10.068907,12.64426 -10.08056,14.87824 -0.01053,2.01534 1.797173,4.82998 3.641787,5.67044 2.889666,1.31662 6.285886,0.89785 18.018623,-2.2218 14.2063,-3.77734 22.83599,-4.45382 30.66667,-2.40394 5.21429,1.36496 11.45243,3.85054 13.05249,5.20073 0.57887,0.48847 1.26668,0.88813 1.52847,0.88813 0.92234,0 8.12172,5.63672 11.0857,8.67949 3.34918,3.43821 10.93202,12.95445 14.51343,18.21391 9.52345,13.98573 10.82407,31.32733 3.70797,49.43993 -1.16458,2.9642 -1.68204,4.246 -3.09511,7.66667 -3.71255,8.9872 -4.50507,15.36247 -2.22383,17.88907 3.31288,3.66913 7.60178,2.45606 18.59745,-5.26007 9.45592,-6.63567 13.54506,-8.9574 20.61261,-11.70327 4.53198,-1.7608 5.56638,-1.89993 14.22082,-1.91233 9.10767,-0.0133 10.48088,0.195 18.33333,2.77793 4.17355,1.37287 6.7462,2.65674 13.66513,6.81947 14.52556,8.73933 21.77349,15.26947 25.55066,23.02033 5.43274,11.14807 7.0394,20.1872 6.36564,35.81314 -0.6052,14.03586 0.72851,19.10486 5.3306,20.25986 4.24035,1.06427 6.2074,-0.63987 15.43344,-13.37066 8.13856,-11.2302 15.01229,-17.95534 21.72709,-21.2574 8.14302,-4.00434 13.56827,-5.18067 23.98434,-5.20047 8.6569,-0.0167 10.41582,0.21767 21.9431,2.91987 13.72847,3.2182 22.30769,7.91573 28.66667,15.6964 1.65,2.01886 3.31059,4.00913 3.6902,4.42273 3.10323,3.38133 6.37182,10.5952 10.89992,24.05646 3.3656,10.0054 5.54178,13.83954 8.80828,15.51914 2.14016,1.1004 2.57229,1.05926 5.10714,-0.48627 z m -28.17221,-68.0788 c -2.93333,-0.31026 -8.48333,-0.86246 -12.33333,-1.22713 -11.801,-1.11773 -17.48564,-1.95387 -30.33334,-4.46193 -6.49569,-1.26807 -18.13436,-4.0008 -22.66666,-5.322 -1.83334,-0.53447 -4.83334,-1.40727 -6.66667,-1.93954 -5.83275,-1.6934 -19.92567,-6.34206 -22,-7.25686 -1.1,-0.48514 -3.5,-1.4196 -5.33333,-2.07674 -1.83334,-0.65706 -3.61834,-1.44506 -3.96667,-1.75113 -0.34833,-0.30607 -0.98982,-0.55647 -1.42552,-0.55647 -1.76887,0 -27.85077,-12.59486 -37.94115,-18.3216 -39.36668,-22.34253 -75.84346,-54.68506 -103.02144,-91.34506 -8.16049,-11.00758 -16.91768,-24.39891 -22.67008,-34.66667 -2.48184,-4.42996 -7.45955,-13.82873 -8.82688,-16.66666 -5.17216,-10.73493 -9.14826,-19.59654 -9.14826,-20.3889 0,-0.34606 -0.29366,-1.15012 -0.65256,-1.78682 -1.63342,-2.89764 -6.07675,-15.41262 -10.94386,-30.82428 -2.64058,-8.36134 -6.80676,-26.65918 -9.0316,-39.66667 -5.890287,-34.43744 -5.877433,-75.32861 0.0346,-109.99999 1.52447,-8.94035 4.06762,-21.05165 5.66952,-27 0.54308,-2.01667 1.30829,-4.86667 1.70045,-6.33334 1.3619,-5.09346 7.91478,-25.42569 9.23898,-28.66666 0.44944,-1.1 1.06491,-2.6 1.36771,-3.33334 0.3028,-0.73333 1.58374,-3.88333 2.84651,-7 4.18453,-10.32786 8.29321,-18.93401 14.95892,-31.33333 3.9004,-7.25539 15.01283,-25.53666 17.40176,-28.62797 1.00819,-1.30461 3.21517,-4.47203 4.9044,-7.03869 1.68923,-2.56667 3.62655,-5.26667 4.30515,-6 0.6786,-0.73334 2.71223,-3.28334 4.51916,-5.66667 1.80694,-2.38333 3.45603,-4.48333 3.66464,-4.66667 0.20862,-0.18333 1.87261,-2.13291 3.69777,-4.3324 14.17063,-17.07699 36.15337,-37.63781 57.98511,-54.23445 2.0392,-1.5502 19.66807,-13.43314 19.92868,-13.43314 0.1707,0 2.05658,-1.14508 4.19085,-2.54462 6.37851,-4.18269 27.27019,-15.18543 35.54714,-18.72113 2.01667,-0.86147 4.86667,-2.09093 6.33333,-2.73213 10.93225,-4.7794 25.16434,-9.92228 36,-13.00889 2.2,-0.62669 5.35,-1.53065 7,-2.0088 1.65,-0.47815 3.75,-1.02794 4.66667,-1.22175 0.91667,-0.1938 3.46667,-0.82093 5.66667,-1.39362 6.37969,-1.6607 22.01368,-4.5789 34,-6.34635 11.02574,-1.625807 24.66308,-2.356047 44,-2.356047 30.09892,0 43.52826,1.415 74,7.797057 6.37383,1.33495 23.29478,5.88009 26.66666,7.16294 2.7919,1.0622 6.05066,2.16699 7.33334,2.48617 0.73333,0.18249 1.93333,0.57501 2.66666,0.87229 0.73334,0.29728 2.83334,1.06026 4.66667,1.69551 1.83333,0.63525 4.23333,1.53605 5.33333,2.00177 1.1,0.46572 4.4,1.81114 7.33334,2.98982 12.63393,5.0766 30.31654,13.92484 41.51174,20.77214 2.29812,1.4056 4.30559,2.55564 4.46104,2.55564 0.6864,0 18.76639,12.34498 26.0642,17.79659 21.10713,15.76742 42.31915,36.04438 58.79515,56.2034 8.58607,10.50535 23.49373,31.70447 27.5568,39.1865 0.74073,1.36409 1.62273,2.93017 1.95993,3.48017 5.82707,9.50371 13.8708,25.50272 19.60787,39 1.8216,4.28573 1.8998,4.4838 5.32687,13.5 1.72813,4.54659 4.19293,11.77394 5.39966,15.83333 0.654,2.2 1.5618,5.2 2.01734,6.66667 4.87433,15.69452 9.8058,41.12321 11.73393,60.50464 1.10013,11.05883 1.48067,46.96185 0.61293,57.82869 -3.9046,48.8964 -16.994,92.79504 -40.55166,135.99999 -1.29954,2.38334 -3.06767,5.45238 -3.92927,6.82009 -0.8616,1.36771 -1.56653,2.65486 -1.56653,2.86033 0,0.20546 -0.5684,1.18642 -1.26307,2.17991 -0.69473,0.99349 -3.592,5.40634 -6.43833,9.80634 -18.05094,27.90355 -43.37074,55.74427 -70.96921,78.03526 -10.11371,8.16874 -30.85669,22.48294 -39.12807,27.00127 -1.39406,0.76153 -3.58466,2.00847 -4.86799,2.77093 -1.28333,0.76247 -7.43333,3.969 -13.66667,7.1256 -12.68015,6.42134 -16.66109,8.227 -28,12.70007 -2.93333,1.15713 -5.93333,2.3432 -6.66666,2.63567 -3.05245,1.21746 -15.10682,5.2706 -19,6.38853 -1.65,0.4738 -4.8,1.37993 -7,2.0136 -2.2,0.6336 -5.05,1.40047 -6.33334,1.70407 -1.28333,0.30366 -4.28333,1.01366 -6.66666,1.57786 -4.1125,0.9736 -13.72806,2.96834 -21,4.35654 -19.94973,3.80826 -60.67234,5.85253 -78.66667,3.94906 z m 40.66667,-11.56646 c 8.43333,-0.5064 17.73333,-1.26074 20.66666,-1.67647 10.17848,-1.4424 18.68249,-2.76693 21.66667,-3.37467 11.37249,-2.31613 16.91287,-3.58906 23,-5.28426 6.72039,-1.87154 10.31337,-2.9104 12.66667,-3.66234 1.46666,-0.4686 4.46666,-1.4032 6.66666,-2.07673 2.2,-0.6736 4.285,-1.46313 4.63334,-1.75447 0.34833,-0.29133 1.05299,-0.52973 1.56591,-0.52973 0.51292,0 1.87792,-0.40927 3.03333,-0.90947 1.15542,-0.5002 3.45076,-1.43613 5.10076,-2.0798 3.16434,-1.23446 4.04601,-1.58873 8.33333,-3.3484 3.78854,-1.55493 5.61521,-2.3996 15,-6.93646 54.93321,-26.5562 101.1092,-68.1349 133.8866,-120.55687 3.166,-5.06354 4.01613,-6.53484 9.8112,-16.9796 4.53833,-8.17976 11.14467,-22.26862 14.6248,-31.1894 0.64367,-1.65 1.4334,-3.59999 1.75493,-4.33333 1.67674,-3.8245 6.94674,-19.30769 8.96307,-26.33333 0.57873,-2.01667 1.3818,-4.71667 1.7846,-6 0.40273,-1.28333 0.95473,-3.38333 1.22653,-4.66667 0.27187,-1.28333 0.98994,-4.43333 1.59574,-7 2.68813,-11.38888 3.91046,-18.49832 6.3614,-37 3.03306,-22.89562 2.10613,-62.41563 -2.03274,-86.66666 -1.7918,-10.49884 -5.335,-27.00411 -7.01253,-32.66667 -0.4888,-1.65 -1.386,-4.8 -1.9938,-7 -2.31713,-8.38747 -8.7394,-26.40454 -12.59473,-35.33333 -3.2046,-7.42169 -4.5558,-10.29401 -8.7674,-18.63781 -12.19207,-24.1542 -24.5888,-42.75819 -43.59167,-65.41885 -6.65573,-7.93684 -26.87424,-28.13078 -34.34933,-34.30756 -3.3,-2.72683 -6.6,-5.45352 -7.33334,-6.05929 -2.47158,-2.04166 -8.64769,-6.89524 -11.33358,-8.90663 -4.48768,-3.36071 -24.52082,-16.62733 -26.99975,-17.88013 -1.28333,-0.64858 -3.23333,-1.71721 -4.33333,-2.37476 -9.805,-5.86108 -24.2229,-12.94512 -36.33334,-17.85189 -3.11666,-1.26277 -6.26666,-2.54371 -7,-2.84651 -4.05965,-1.67628 -5.64904,-2.27064 -9.3055,-3.47985 -2.21531,-0.73261 -4.62783,-1.56855 -5.36116,-1.85765 -0.73334,-0.28909 -3.13334,-1.05714 -5.33334,-1.70678 -2.2,-0.64964 -5.2,-1.56064 -6.66666,-2.02445 -9.12735,-2.88637 -27.75403,-7.04566 -40,-8.93189 -36.4984,-5.6218 -74.97156,-5.02306 -110,1.71189 -11.58275,2.22703 -31.42614,7.21506 -38.33334,9.63585 -1.28333,0.44977 -4.43333,1.54183 -7,2.42679 -45.28216,15.61281 -85.657,40.57593 -119.8972,74.13049 -19.91174,19.51303 -36.49711,40.23462 -50.46119,63.0457 -10.79391,17.63244 -24.01638,46.02038 -29.65451,63.66666 -0.9958,3.11667 -2.05235,6.26667 -2.34789,7 -0.89917,2.23112 -3.86931,13.23211 -7.19971,26.66667 -0.36358,1.46667 -0.86136,4.01667 -1.10616,5.66667 -0.24481,1.65 -0.6993,4.05 -1.00998,5.33333 -0.8241,3.40415 -2.47765,14.31139 -3.79001,25 -1.42832,11.63299 -1.60435,55.63491 -0.26136,65.33333 0.45697,3.3 1.09189,8.25 1.41095,11 0.64252,5.53798 2.12024,14.35706 3.68631,22 0.56349,2.75 1.26381,6.2 1.55627,7.66667 0.53696,2.69274 1.39964,5.97619 3.12916,11.90988 0.51993,1.78378 0.94532,3.66285 0.94532,4.17572 0,0.51287 0.26267,1.45342 0.58371,2.09011 0.32103,0.63669 1.11053,2.95762 1.75443,5.15762 1.76622,6.03454 3.04552,9.87065 3.72097,11.15762 0.33416,0.63669 0.60756,1.49135 0.60756,1.89925 0,0.40789 0.40925,1.68696 0.90945,2.84238 0.5002,1.15541 1.44095,3.45075 2.09055,5.10075 0.6496,1.65 1.59035,3.94534 2.09055,5.10075 0.5002,1.15541 0.90945,2.29899 0.90945,2.54128 0,0.94495 11.75487,25.26272 14.83575,30.6913 1.86252,3.28181 5.88,10.19713 6.97144,12 0.44395,0.73333 1.01883,1.75467 1.27751,2.26965 0.56165,1.11813 12.62714,19.1073 13.58885,20.26044 0.36844,0.44178 2.82981,3.65324 5.4697,7.13658 2.6399,3.48333 4.97568,6.48333 5.19062,6.66666 0.21494,0.18334 2.61693,3.03334 5.33775,6.33334 6.2293,7.55531 26.20893,27.5616 34.99505,35.04173 13.31445,11.3354 33.02017,25.5114 44,31.65293 0.73333,0.4102 4.33333,2.485 8,4.61067 7.68028,4.45246 29.13568,15.028 30.48847,15.028 0.50134,0 1.19653,0.2826 1.54486,0.62806 0.77515,0.76867 16.68846,6.8864 22.83264,8.77774 2.45705,0.7564 5.45254,1.79953 6.65665,2.31806 1.2041,0.51854 2.9114,0.9428 3.79398,0.9428 0.88259,0 1.7691,0.266 1.97002,0.59107 0.20092,0.32513 1.49363,0.79327 2.87268,1.04027 1.37905,0.24706 3.40736,0.71166 4.50736,1.0324 18.04534,5.262 44.037,9.36786 67,10.584 15.1597,0.80286 17.5109,0.7876 34.33334,-0.2224 z M 266.40201,551.83224 v -48 l 16.83334,0.01 c 17.84391,0.0105 22.42166,0.56264 27.92059,3.368 4.52011,2.30598 8.38684,6.36352 9.88811,10.37603 1.60286,4.28399 1.80052,12.50797 0.39534,16.44745 -2.21251,6.20285 -7.2099,10.82202 -14.60516,13.49978 l -3.91598,1.41794 3.7056,0.74419 c 8.01635,1.60991 15.03429,6.97184 18.33138,14.00575 1.57565,3.36146 1.77984,4.6017 1.77768,10.79767 -0.003,8.69113 -1.39851,12.29427 -6.70533,17.31324 -7.08215,6.69799 -13.11514,8.02008 -36.59746,8.02008 h -17.02811 z m 37.37964,44.38654 c 13.37986,-2.38699 20.29082,-9.9443 20.16703,-22.05321 -0.1167,-11.41675 -7.36363,-19.75289 -19.70056,-22.66157 -3.03736,-0.71612 -8.32391,-0.98808 -19.34611,-0.99524 l -15.16666,-0.01 v 23.33333 23.33333 l 14.5,-0.0233 c 9.1361,-0.0147 16.36674,-0.35628 19.5463,-0.92352 z m -4.71297,-49.09323 c 5.03443,-0.80933 10.36684,-3.08246 14.02196,-5.97737 7.94922,-6.29589 8.57521,-21.17316 1.17971,-28.03731 -5.76177,-5.34781 -11.45376,-6.58493 -30.36834,-6.60039 l -14.16666,-0.0116 v 20.66666 20.66667 l 12.5,-0.005 c 6.875,-0.003 14.45,-0.31852 16.83333,-0.70166 z m 50.66667,4.70669 v -48 h 28 c 27.55555,0 28,0.0211 28,1.33333 0,1.31112 -0.44445,1.33334 -26.66667,1.33334 h -26.66667 v 21 21 h 25.33334 c 24.8378,0 25.33333,0.0259 25.33333,1.32531 0,1.29616 -0.55377,1.32916 -25.16667,1.5 l -25.16666,0.17468 v 22.66667 22.66667 l 27.83333,0.17398 c 27.2794,0.17052 27.83333,0.20037 27.83333,1.5 0,1.30349 -0.49838,1.32602 -29.33333,1.32602 h -29.33333 z m 80.66666,0 c 0,-47.55555 0.0123,-48 1.33334,-48 1.32063,0 1.33333,0.44445 1.33333,46.66667 v 46.66666 h 24 c 23.55555,0 24,0.0247 24,1.33333 0,1.30994 -0.44445,1.33334 -25.33333,1.33334 h -25.33334 z m 67.33334,0 v -48 h 1.66666 1.66667 v 46.66667 46.66666 h 24 c 23.55555,0 24,0.0247 24,1.33333 0,1.31025 -0.44445,1.33334 -25.66667,1.33334 h -25.66666 z m 76.66186,26.83333 -0.005,-21.16667 -16.30369,-26.66666 c -14.31869,-23.41996 -16.13399,-26.69397 -14.90989,-26.89088 0.76659,-0.12332 1.77372,0.17668 2.23806,0.66667 0.46436,0.48998 7.22147,11.39088 15.01582,24.22421 7.79436,12.83333 14.53422,23.86536 14.97747,24.51562 0.70001,1.02692 2.81121,-2.14504 16.06553,-24.13749 14.06049,-23.3301 15.40311,-25.32208 17.0855,-25.34896 2.03033,-0.0325 3.9011,-3.35008 -21.71983,38.51798 l -9.10617,14.88049 v 21.28618 21.28618 h -1.66667 -1.66667 l -0.005,-21.16667 z M 428.7059,441.08029 c -5.68931,-1.27788 -10.27461,-7.19015 -10.27461,-13.24805 0,-7.31402 6.50903,-13.99256 13.63739,-13.99256 7.12836,0 13.63739,6.67854 13.63739,13.99256 0,8.85345 -8.18113,15.22891 -17.00017,13.24805 z M 284.40201,294.55242 v -48.05351 l 16.83334,0.01 c 18.46092,0.0108 22.72638,0.57876 28.67918,3.81868 8.6802,4.72436 12.65599,15.42082 9.55798,25.71475 -1.89722,6.30398 -7.8944,12.05407 -14.86312,14.25077 l -3.54315,1.11688 5.00707,1.44419 c 5.93469,1.71174 10.77326,4.83213 13.91185,8.97174 3.26523,4.30664 4.47918,7.63507 4.89642,13.425 0.88585,12.29261 -5.33479,21.29082 -17.49111,25.30109 -4.32924,1.42818 -5.99688,1.55382 -23.82179,1.79487 l -19.16667,0.25919 v -48.05351 z m 35.51498,44.60054 c 9.90774,-1.43267 16.5406,-5.35889 19.78836,-11.71343 1.34064,-2.62307 1.72117,-4.48882 1.9141,-9.38477 0.21703,-5.50772 0.0616,-6.51006 -1.57467,-10.1562 -3.15741,-7.03566 -9.96441,-12.08591 -18.84225,-13.97947 -2.02991,-0.43296 -9.90004,-0.75351 -18.5,-0.75351 h -14.96718 v 23.33333 23.33333 l 13.83333,-0.0132 c 7.60833,-0.007 15.86507,-0.30699 18.34831,-0.66607 z m 1.15169,-50.30016 c 11.00854,-3.50563 16.22058,-9.70327 16.27609,-19.35389 0.0329,-5.72906 -1.06443,-9.05958 -4.08764,-12.40591 -5.83641,-6.46021 -9.33296,-7.3835 -29.35512,-7.75145 l -16.16666,-0.2971 v 20.79957 20.79957 l 14.83333,-0.31158 c 11.63593,-0.24441 15.6237,-0.56326 18.5,-1.47921 z m 46.66667,5.64611 v -48 h 28 c 27.55555,0 28,0.0211 28,1.33334 0,1.31111 -0.44445,1.33333 -26.66667,1.33333 h -26.66667 v 21 21 h 25 c 24.55556,0 25,0.0237 25,1.33333 0,1.30963 -0.44444,1.33334 -25,1.33334 h -25 v 22.99999 23 h 27.66667 c 27.22222,0 27.66667,0.0214 27.66667,1.33334 0,1.3129 -0.44445,1.33333 -29,1.33333 h -29 z m 80.66666,0 v -48 h 28.04888 c 26.35432,0 28.03532,0.0705 27.82435,1.16667 -0.20868,1.08425 -2.09597,1.17898 -26.71555,1.34098 l -26.49101,0.17432 v 20.99235 20.99235 h 25 c 24.55555,0 25,0.0237 25,1.33333 0,1.30963 -0.44445,1.33334 -25,1.33334 h -25 v 22.99999 23 h 27.66667 c 27.22222,0 27.66666,0.0214 27.66666,1.33334 0,1.3129 -0.44444,1.33333 -29,1.33333 h -29 z m 80,-0.0464 v -48.0464 l 18.83334,0.24326 c 22.0225,0.28444 24.88676,0.85174 30.88831,6.1178 4.95927,4.35149 7.08604,9.43356 7.11845,17.00998 0.0211,4.936 -0.24946,6.39112 -1.85271,9.96362 -3.36751,7.50383 -9.90849,11.82244 -20.54403,13.56397 -2.62718,0.43019 -4.86254,0.83573 -4.96748,0.90118 -0.10494,0.0655 5.97668,10.39023 13.5147,22.94395 16.96366,28.25109 15.42974,25.34904 13.3987,25.34904 -1.46978,0 -3.30469,-2.75539 -16.19013,-24.31178 l -14.53248,-24.31177 -11.16667,-0.0216 -11.16666,-0.0215 v 24.33333 24.33333 h -1.66667 -1.66667 v -48.04639 z m 36.13386,-4.03 c 8.8371,-1.85871 14.80398,-6.76426 16.77584,-13.79195 2.83404,-10.10041 -0.36158,-19.01938 -8.52962,-23.80617 -4.78651,-2.80508 -10.25303,-3.66281 -26.21341,-4.11302 l -14.83333,-0.41843 v 21.43632 21.43631 h 14.63385 c 8.20135,0 16.18675,-0.32662 18.16667,-0.74306 z M 394.12559,814.66556 c 0.2286,-1.00833 0.83431,-3.52666 1.34603,-5.5962 2.83884,-11.48146 -0.2982,-18.72566 -10.40294,-24.02306 -4.90201,-2.56987 -14.30211,-5.21407 -18.53598,-5.21407 -6.5577,0 -16.41045,3.4918 -20.35687,7.21447 -3.19491,3.01373 -3.97195,5.26613 -4.29828,12.45913 l -0.30277,6.6736 3.24695,0.91393 c 1.78582,0.50267 4.44695,1.15207 5.91362,1.4432 1.46666,0.29107 4.01666,0.846 5.66666,1.23314 1.65,0.38713 4.65,1.0356 6.66667,1.44106 2.01667,0.40547 5.61667,1.13147 8,1.6134 5.74193,1.16107 15.83226,2.94367 18.33333,3.23887 4.20598,0.49647 4.30054,0.46847 4.72358,-1.39747 z m 97.94309,-2.5164 c 3.66667,-0.54206 8.76667,-1.2834 11.33333,-1.6474 2.56667,-0.36406 6.16667,-0.94766 8,-1.29686 1.83334,-0.34927 6.03334,-1.1416 9.33334,-1.76074 3.3,-0.6192 6.26409,-1.36426 6.58687,-1.65573 0.33641,-0.3038 0.23381,-2.89707 -0.24043,-6.0764 -1.67961,-11.26053 -3.78914,-14.925 -10.56584,-18.35366 -3.52158,-1.78174 -4.08135,-1.85947 -13.39456,-1.85947 -9.7211,0 -10.45701,0.1276 -16.71938,2.89947 -3.86376,1.71013 -9.18948,6.05926 -11.83786,9.66706 -2.32346,3.1652 -2.49547,3.7224 -2.49547,8.08313 0,3.9636 1.48621,10.87534 2.85448,13.27507 0.38776,0.68007 7.50054,0.1514 17.14552,-1.27447 z M 264.84014,779.33223 c 1.90691,-2.42226 6.59427,-10.55593 7.38517,-12.81506 1.32832,-3.79414 1.01751,-7.73274 -0.9361,-11.86234 -3.15981,-6.67926 -12.7506,-14.78766 -20.88568,-17.65746 -7.71894,-2.723 -19.37914,-2.11447 -23.81056,1.24266 -2.26439,1.71547 -7.52429,11.52047 -7.52429,14.02607 0,1.02953 1.84714,2.58967 7.16667,6.05307 7.74993,5.0458 20.47929,12.88413 25.83333,15.9074 5.40306,3.05086 11.31342,6.24086 11.59317,6.2572 0.14291,0.009 0.67314,-0.50987 1.17829,-1.15154 z m 350.47655,-9.40613 c 10.64978,-5.53267 12.94264,-6.78787 23.08532,-12.6376 9.23049,-5.32367 11.33334,-6.72093 11.33334,-7.53053 0,-0.68614 -3.65871,-7.6622 -5.90502,-11.25907 -1.50228,-2.40553 -4.7359,-5.25227 -7.42832,-6.53953 -2.87144,-1.37287 -9.83025,-1.48147 -14,-0.21847 -13.5984,4.11887 -21.65606,10.63433 -26.3027,21.26853 -2.41226,5.52067 -1.42942,12.30374 2.37434,16.3866 0.69477,0.74574 1.93788,2.34694 2.76246,3.5582 0.82458,1.2112 2.06084,2.20427 2.74724,2.2068 0.68641,0 5.78641,-2.3532 11.33334,-5.23493 z M 158.63941,699.67923 c 5.08603,-3.9638 9.21866,-8.15846 10.49623,-10.6538 4.97086,-9.70893 -4.8465,-28.91779 -18.27659,-35.76043 -7.84997,-3.99955 -14.25497,-4.82194 -18.92888,-2.43044 -2.51988,1.28936 -10.19482,9.06858 -10.19482,10.33334 0,0.5582 1.125,2.54747 2.5,4.42054 3.90675,5.32186 14.59324,19.09799 15.96222,20.57713 0.67871,0.73333 3.47479,4.03333 6.2135,7.33333 2.73871,3.3 5.42372,6.525 5.9667,7.16667 1.44429,1.7068 3.15093,1.43793 6.26164,-0.98634 z m 555.29407,-6.68033 c 8.55187,-8.64793 26.36387,-29.05793 30.2382,-34.64866 l 1.84747,-2.66586 -2.319,-2.09274 c -9.356,-8.44324 -11.60447,-9.6951 -17.4788,-9.73146 -6.52914,-0.0404 -11.78494,2.65388 -18.8024,9.63872 -7.7,7.66422 -10.99574,14.874 -11.00974,24.08527 -0.009,5.9716 1.1624,8.82093 4.91687,11.95926 2.42153,2.02414 8.86593,6.23487 9.6074,6.2774 0.109,0.007 1.459,-1.2636 3,-2.82193 z M 88.029497,588.89758 c 8.001173,-3.05736 11.552716,-6.82134 13.078423,-13.86071 1.4032,-6.47415 -0.80122,-17.21404 -5.10497,-24.8713 -2.79072,-4.96527 -4.352047,-6.71658 -8.9636,-10.05431 -5.333767,-3.86044 -7.13396,-4.6161 -10.907687,-4.57865 -2.625253,0.0261 -4.607133,0.65555 -8.729646,2.77278 l -5.333334,2.73908 0.165307,3.09706 c 0.148067,2.77403 8.562167,29.64451 10.1816,32.51499 0.3592,0.6367 0.653093,1.49136 0.653093,1.89925 0,0.40789 0.4217,1.68697 0.937107,2.84238 0.515407,1.15541 1.46344,3.60075 2.106733,5.43409 1.930787,5.5026 2.612447,5.62074 11.916974,2.06534 z m 698.061383,-8.06534 c 0.7516,-1.46667 2.362,-5.06667 3.57873,-8 1.21674,-2.93334 2.471,-5.93334 2.78727,-6.66667 0.31627,-0.73333 1.1916,-2.98333 1.94513,-5 0.75354,-2.01667 1.62594,-4.26667 1.9386,-5 1.36474,-3.20098 4.33147,-11.26372 6.80707,-18.49956 0.98153,-2.86874 0.8158,-3.10084 -3.41233,-4.77955 -1.65,-0.6551 -3.48074,-1.43519 -4.06827,-1.73353 -0.5876,-0.29835 -3.09093,-1.0497 -5.563,-1.66968 -4.22393,-1.05931 -4.7116,-1.05902 -8.09367,0.005 -6.76886,2.12907 -13.5294,10.08619 -17.189,20.23129 -3.427,9.5005 -1.9364,22.78549 3.21687,28.67018 1.5758,1.79943 6.2526,4.08793 8.4938,4.15627 0.84513,0.0257 2.1366,0.3117 2.86993,0.6354 0.73334,0.3237 2.23087,0.52761 3.32787,0.45314 1.5952,-0.10828 2.26813,-0.66933 3.361,-2.80206 z M 61.703343,461.71339 c 5.417654,-1.25054 9.364834,-5.20708 11.853047,-11.88115 1.294547,-3.47232 2.84864,-11.91621 2.822093,-15.33333 -0.08045,-10.35588 -6.435806,-22.60279 -13.500726,-26.01619 -3.155184,-1.52442 -7.738425,-1.666 -13.139172,-0.4059 -3.508592,0.81863 -3.687159,0.96537 -4.224835,3.47176 -0.308772,1.43935 -0.714071,13.191 -0.900665,26.11477 l -0.339262,23.49777 1.564097,0.62663 c 2.236215,0.89592 11.857314,0.85082 15.865423,-0.0744 z m 747.955137,-6.65214 c 2.4256,-0.42404 4.76553,-1.09904 5.1998,-1.5 0.43433,-0.40096 1.10833,-4.17901 1.49773,-8.39568 0.7522,-8.14428 0.99014,-41.83452 0.308,-43.61213 -0.33413,-0.87078 -1.649,-1.05453 -7.54566,-1.05453 -10.74594,0 -14.6306,1.51659 -18.7838,7.33333 -2.90447,4.06785 -5.26587,13.24598 -5.26587,20.46723 0,13.32145 9.2618,27.26543 18.25647,27.48568 1.05773,0.0259 3.90773,-0.29986 6.33333,-0.7239 z M 81.402017,332.49596 c 3.917446,-1.72468 6.637406,-4.29623 10.094413,-9.54364 4.671013,-7.09015 6.905587,-13.8577 6.905587,-20.91401 0,-9.98049 -3.19584,-17.3364 -8.679794,-19.97837 -3.507093,-1.68959 -11.759893,-3.77999 -12.67948,-3.21166 -0.589886,0.36457 -2.72004,4.68711 -5.084373,10.3173 -0.538927,1.28333 -1.239367,2.93333 -1.556547,3.66667 -1.2347,2.8547 -7.91388,20.1768 -8.997026,23.33333 -0.6291,1.83333 -1.39118,3.93333 -1.693517,4.66666 -2.286923,5.54708 -2.330451,8.33334 -0.130187,8.33334 0.67151,0 1.518324,0.2974 1.88181,0.66088 0.36348,0.36348 3.34848,1.52672 6.633334,2.58496 6.444466,2.07614 8.748773,2.09078 13.30578,0.0845 z m 712.821593,-8.11257 5.58987,-2.78219 -0.42213,-2.71781 c -0.2322,-1.4948 -0.81234,-3.91781 -1.28927,-5.38448 -0.47693,-1.46667 -1.38,-4.31667 -2.00687,-6.33333 -0.62686,-2.01667 -1.3694,-4.26667 -1.65013,-5 -1.03653,-2.70794 -2.1756,-6.055 -2.72267,-8 -0.30933,-1.1 -1.01206,-3.2 -1.56153,-4.66667 -3.9454,-10.53107 -5.25873,-14.18711 -5.5608,-15.47964 -0.6584,-2.8179 -1.92413,-3.21393 -6.07967,-1.90232 -12.1852,3.84606 -15.7302,6.5922 -17.89073,13.85917 -1.06847,3.59367 -0.958,8.18683 0.37333,15.52279 1.7912,9.86987 8.04967,18.69223 16.73234,23.58707 5.4368,3.06498 9.2446,2.90272 16.48826,-0.70259 z M 141.87733,217.78062 c 6.4767,-2.54491 14.95129,-10.03607 18.63266,-16.47043 2.87008,-5.01638 4.54763,-11.03525 4.5536,-16.33784 0.008,-7.24411 -2.61146,-11.01024 -10.99455,-15.80656 l -3.85305,-2.20449 -5.07366,5.27645 c -11.19498,11.64246 -27.64132,30.67456 -28.96314,33.51684 -0.65004,1.39778 -0.49162,1.79896 1.31633,3.33334 1.13043,0.95938 3.59985,3.07794 5.48763,4.70791 1.88777,1.62998 4.55429,3.4948 5.92559,4.14405 3.37637,1.59855 8.66014,1.53366 12.96859,-0.15927 z m 588.26502,-6.32018 c 4.207,-2.76649 9.63266,-9.06004 9.1498,-10.61353 -0.49327,-1.58728 -6.10534,-9.1977 -12.79434,-17.35021 -0.60266,-0.73455 -2.14146,-2.68455 -3.41953,-4.33333 -1.27807,-1.64878 -2.62807,-3.33288 -3,-3.74244 -0.9334,-1.02779 -2.6438,-3.07332 -7.5682,-9.05108 -2.32387,-2.82099 -4.72387,-5.24055 -5.33333,-5.37681 -2.57747,-0.57627 -13.1832,8.74382 -15.16894,13.33018 -1.65766,3.82863 -1.3816,9.16876 0.75227,14.55115 5.7848,14.59154 17.73327,24.01524 30.7156,24.2253 3.31853,0.0537 4.5542,-0.25014 6.66667,-1.63923 z m -489.84294,-80.702 c 2.0731,-0.5906 4.05427,-1.3406 4.4026,-1.66666 0.34834,-0.32608 1.00184,-0.59286 1.45222,-0.59286 1.8346,0 9.13876,-5.06441 12.41518,-8.60818 5.01544,-5.42469 7.8326,-11.52442 7.8326,-16.95918 0,-4.150517 -0.10708,-4.412617 -4.09145,-10.014017 -2.2503,-3.16357 -4.29891,-5.75195 -4.55247,-5.75195 -0.57116,0 -21.11727,10.43865 -25.73116,13.072967 -16.30728,9.31071 -19.68844,11.41412 -20.01897,12.45372 -0.20867,0.65634 0.29012,2.45634 1.10843,4 5.05352,9.53285 7.11491,11.99096 11.95229,14.25249 2.45701,1.14868 10.90748,1.0453 15.23073,-0.18633 z m 387.87771,-3.71152 c 5.17555,-0.95364 8.52173,-3.53042 10.77229,-8.2954 0.84494,-1.78893 1.77928,-3.71245 2.07632,-4.27448 0.29704,-0.56204 0.74206,-1.94151 0.98893,-3.06549 0.43231,-1.9683 0.24504,-2.1783 -5.0819,-5.69871 -14.04418,-9.281357 -36.52897,-22.492497 -38.6749,-22.723777 -1.82763,-0.19698 -6.34364,6.36042 -8.96384,13.01579 l -1.77397,4.505927 1.14676,4.12471 c 1.39934,5.03315 4.49296,9.37671 9.89076,13.887 9.304,7.77423 18.82298,10.51377 29.61955,8.52443 z M 371.02376,82.046703 c 8.05489,-3.00557 16.69031,-10.55586 18.12125,-15.84412 0.84458,-3.12123 0.32437,-7.97982 -1.39586,-13.03699 -1.2297,-3.6151 -1.28779,-3.66999 -4.13052,-3.90282 -1.58581,-0.12989 -5.28328,0.11029 -8.21662,0.53372 -2.93333,0.42343 -8.48333,1.21403 -12.33333,1.75687 -7.04415,0.99323 -19.32488,3.08424 -27.16667,4.62562 -2.49622,0.49066 -2.60491,1.10514 -1.45811,8.24307 1.57501,9.8032 4.05751,14.04138 9.88618,16.87797 1.68956,0.82224 4.42193,1.70909 6.07193,1.97076 4.90164,0.77735 17.2171,0.0463 20.62175,-1.22408 z m 129.26809,0.10013 c 6.19659,-1.17548 9.30035,-2.36002 13.18277,-5.0312 4.38247,-3.01522 5.54601,-5.62397 6.02898,-13.51752 l 0.41556,-6.79179 -3.92524,-1.07246 c -5.7777,-1.5786 -10.24899,-2.6772 -13.25857,-3.25765 -1.46667,-0.28287 -5.21667,-1.02345 -8.33334,-1.64573 -3.11666,-0.62227 -7.16666,-1.36748 -9,-1.65601 -1.83333,-0.28853 -4.53333,-0.84164 -6,-1.22912 -1.46666,-0.38749 -4.74024,-0.79645 -7.2746,-0.90881 l -4.60794,-0.20429 -1.18908,4.66667 c -1.68292,6.6048 -1.64076,14.31013 0.097,17.71632 2.67736,5.24807 11.19412,10.29798 21.308,12.63432 6.46576,1.49362 6.27381,1.48907 12.5565,0.29727 z"
     id="path3879"
     inkscape:connector-curvature="0" />
</svg>
