<?xml version="1.0" encoding="UTF-8" standalone="no"?>
<!-- Created with Inkscape (http://www.inkscape.org/) -->

<svg
   xmlns:dc="http://purl.org/dc/elements/1.1/"
   xmlns:cc="http://creativecommons.org/ns#"
   xmlns:rdf="http://www.w3.org/1999/02/22-rdf-syntax-ns#"
   xmlns:svg="http://www.w3.org/2000/svg"
   xmlns="http://www.w3.org/2000/svg"
   xmlns:sodipodi="http://sodipodi.sourceforge.net/DTD/sodipodi-0.dtd"
   xmlns:inkscape="http://www.inkscape.org/namespaces/inkscape"
   version="1.1"
   id="svg3843"
   width="860"
   height="865.33331"
   viewBox="0 0 860 865.33331"
   sodipodi:docname="logo2.svg"
   inkscape:version="0.92.2 5c3e80d, 2017-08-06">
  <metadata
     id="metadata3849">
    <rdf:RDF>
      <cc:Work
         rdf:about="">
        <dc:format>image/svg+xml</dc:format>
        <dc:type
           rdf:resource="http://purl.org/dc/dcmitype/StillImage" />
        <dc:title></dc:title>
      </cc:Work>
    </rdf:RDF>
  </metadata>
  <defs
     id="defs3847" />
  <sodipodi:namedview
     pagecolor="#ffffff"
     bordercolor="#666666"
     borderopacity="1"
     objecttolerance="10"
     gridtolerance="10"
     guidetolerance="10"
     inkscape:pageopacity="0"
     inkscape:pageshadow="2"
     inkscape:window-width="1680"
     inkscape:window-height="947"
     id="namedview3845"
     showgrid="false"
     inkscape:zoom="0.84822806"
     inkscape:cx="430"
     inkscape:cy="432.66666"
     inkscape:window-x="0"
     inkscape:window-y="1"
     inkscape:window-maximized="1"
     inkscape:current-layer="svg3843" />
  <path
     id="path3879"
     style="fill:#e4e4e4;stroke-width:0.66666669"
     d="m 428.16602,16.498047 c -5.70413,0 -9.08054,1.516146 -15.07813,6.771484 -14.59324,12.787197 -23.29466,16.27456 -52.01953,20.84961 -13.69311,2.18092 -24.34373,3.152571 -35.09766,3.201171 -11.88964,0.05378 -13.60179,-0.250952 -23.56836,-4.195312 -4.96634,-1.96547 -14.6037,-2.165297 -17.93554,-0.373047 -3.90647,2.10136 -8.26501,7.214406 -11.34961,13.316406 -5.38072,10.64422 -12.08464,17.6297 -25.26172,26.31836 -2.3176,1.52817 -4.2995,2.779297 -4.4043,2.779297 -0.10478,0 -2.86014,1.543527 -6.12109,3.429687 -7.19648,4.16251 -21.90506,11.728357 -26.92774,13.851567 -2.01666,0.85249 -4.86731,2.07111 -6.33398,2.70703 -5.84116,2.53261 -6.84667,2.88425 -11.66602,4.08398 -3.46291,0.86207 -7.44133,1.24695 -12.9414,1.25195 -9.10199,0.009 -13.66956,1.11383 -17.43164,4.21485 -4.23135,3.48784 -7.61757,10.69599 -7.63477,16.25195 -0.0141,4.55388 -3.00786,14.98679 -6.00781,20.93945 -2.85033,5.65574 -13.34449,20.35515 -16.61328,23.26954 -0.20563,0.18334 -2.98227,3.35353 -6.16992,7.04492 -7.74125,8.96461 -23.27615,23.99816 -28.10352,27.19726 -2.138254,1.41703 -5.734302,3.33025 -7.992188,4.25 -12.313631,5.01598 -14.174646,5.95412 -16.808593,8.48047 -4.455473,4.27347 -5.246264,6.35928 -5.183594,13.69336 0.03072,3.59361 0.522539,8.05208 1.136719,10.30664 1.56256,5.73588 1.463213,19.74438 -0.1875,26.4668 -2.047867,8.33978 -5.552958,18.67538 -9.154297,26.99414 -0.5002,1.15541 -0.908203,2.52028 -0.908203,3.0332 0,0.51292 -0.251865,1.21808 -0.558594,1.56641 -0.306731,0.34833 -1.244743,2.28216 -2.085938,4.29883 -8.60942,20.64007 -15.01381,31.01159 -23.167968,37.51757 -8.456966,6.74769 -11.586584,11.69096 -11.699219,18.48243 -0.07247,4.36991 1.309637,8.61066 4.384766,13.44726 6.1988,9.74952 8.925699,16.7735 10.568359,27.22071 1.160137,7.37842 1.172413,34.53403 0.02148,47.33203 -1.765843,19.63628 -3.473129,26.21985 -9.33789,36 -3.79124,6.32232 -4.355543,8.15675 -4.408203,14.33398 -0.04346,5.09729 0.171685,6.35171 1.423828,8.33399 2.13246,3.37592 4.01472,5.35052 8.52539,8.9414 11.711727,9.32352 17.799817,17.8817 23.988282,33.72461 0.644513,1.65 1.414374,3.60066 1.710937,4.33399 0.296563,0.73333 1.138484,3.14601 1.871094,5.36132 0.732611,2.21531 1.625195,4.76466 1.984375,5.66602 0.789826,1.9821 3.40422,10.19855 4.126953,12.97266 0.286587,1.1 1.586085,6.08305 2.888672,11.07421 2.801373,10.73411 3.566916,18.89102 2.43164,25.92579 -1.332059,8.25421 -1.572293,15.24403 -0.626953,18.26171 2.232827,7.12749 7.420447,11.04954 19.625,14.83204 8.99348,2.78731 16.916061,8.1445 26.277341,17.77148 7.39486,7.60473 11.18424,12.15106 20.72266,24.86719 13.16553,17.5516 17.81196,25.63731 19.625,34.14844 2.71835,12.76092 3.37439,14.97604 5.33008,17.96484 2.51422,3.8424 7.43454,7.17743 11.60156,7.86523 1.71073,0.2824 7.76003,0.54789 13.44336,0.58789 11.88985,0.0841 15.55421,0.90852 27.18555,6.12305 1.93502,0.86747 3.6228,1.57813 3.75195,1.57813 0.40545,0 16.48163,9.38284 22.02344,12.85351 11.24079,7.0404 23.88369,16.2161 28.80859,20.91016 2.48759,2.37107 8.23047,9.71972 8.23047,10.53125 0,0.92587 4.47906,7.65693 6.60547,9.92773 3.76755,4.02334 7.8209,5.77735 13.35937,5.77735 4.30186,0 6.3981,-0.50547 12.36914,-2.97461 2.57765,-1.06593 5.11777,-1.95757 9.66602,-3.39453 5.04799,-1.59471 23.89353,-1.61753 32,-0.0391 3.11667,0.607 7.16667,1.37809 9,1.71289 1.83333,0.3348 4.98333,0.96411 7,1.39844 2.01667,0.4344 4.86732,1.02844 6.33398,1.32031 3.047,0.60633 11.59376,2.81343 17,4.39063 12.01318,3.5046 16.93189,5.73808 22.50196,10.21875 6.99558,5.62733 11.13446,8.49053 13.83008,9.5664 h 0.002 c 6.87996,2.74599 14.06665,0.74376 21.73242,-6.05664 15.45666,-13.71187 25.14569,-17.04666 65.59961,-22.57226 5.08311,-0.69427 12.73995,-1.09742 21,-1.10742 l 13,-0.0176 6.66797,2.53125 c 12.55742,4.76653 20.44538,4.41503 26.46875,-1.18164 1.94439,-1.8066 5.26977,-6.85904 7.89453,-11.9961 4.5481,-8.90127 13.57729,-17.88736 25.16992,-25.04882 18.16922,-11.2242 42.433,-23.06655 53.625,-26.17188 3.26893,-0.90693 6.72801,-1.24609 12.71094,-1.24609 10.391,0 15.80557,-1.45353 19.8457,-5.32813 3.4826,-3.33993 6.61719,-11.15141 6.61719,-16.48828 0,-2.78413 0.92989,-6.86792 3.00195,-13.18359 3.52214,-10.73553 14.18258,-25.02051 35.99805,-48.24024 4.9518,-5.27053 15.07415,-14.23922 18.71875,-16.58398 2.29853,-1.4788 9.20082,-4.62038 12.94922,-5.89453 6.81573,-2.3168 12.35295,-6.48662 14.72461,-11.08789 1.674,-3.24771 1.79158,-13.61963 0.20312,-17.94141 -1.61423,-4.39173 -1.58663,-20.62527 0.0469,-27.25195 1.18853,-4.82201 4.19146,-14.55761 5.55273,-18 0.36246,-0.91667 1.17857,-3.01602 1.8125,-4.66602 1.91347,-4.98005 2.1011,-5.44633 4.68164,-11.66601 4.09586,-9.87216 8.38271,-18.98264 11.91211,-25.3125 1.05247,-1.88752 5.35342,-7.78929 6.81836,-9.35547 0.68593,-0.73338 3.04657,-2.83273 5.2461,-4.66602 5.39112,-4.49355 7.41924,-6.72035 9.71484,-10.66601 3.59587,-6.18038 2.42403,-14.17043 -3.33203,-22.69922 -2.4926,-3.69333 -6.69595,-12.38176 -7.52735,-15.56055 -0.34627,-1.32399 -1.2256,-5.85755 -1.95507,-10.07422 -1.1678,-6.75054 -1.28824,-9.77839 -1.00977,-25.33398 0.61093,-34.12556 2.59057,-45.67321 9.91797,-57.83203 6.9744,-11.57288 6.72097,-20.48284 -0.79883,-28.07813 -1.49194,-1.50697 -4.38502,-3.97585 -6.42969,-5.48633 -10.1844,-7.5237 -18.18497,-19.87091 -23.93164,-36.93554 -0.61733,-1.83333 -1.36633,-3.93463 -1.66406,-4.66797 -0.9288,-2.28798 -4.45581,-13.14169 -5.63281,-17.33203 -0.61787,-2.2 -1.37544,-4.7513 -1.68164,-5.66797 -0.53313,-1.59572 -1.41703,-5.16463 -3.64649,-14.70899 -1.1658,-4.99066 -1.30902,-16.13755 -0.26562,-20.62304 0.38387,-1.65 0.84948,-5.43354 1.03515,-8.40625 0.30106,-4.81991 0.15291,-5.79416 -1.37109,-9.01563 -0.93993,-1.98686 -2.67399,-4.60024 -3.85352,-5.80664 -2.157,-2.20627 -9.56872,-6.10547 -11.60546,-6.10547 -0.60153,0 -2.03986,-0.41004 -3.19532,-0.91015 -1.1554,-0.50023 -3.44961,-1.45213 -5.09961,-2.11719 -8.5034,-3.42746 -20.49823,-13.66394 -30.82617,-26.30664 -9.129,-11.1751 -22.45539,-29.44398 -25.53125,-35 -0.40594,-0.73334 -1.15686,-2.08334 -1.66992,-3 -2.04034,-3.6452 -4.20746,-10.74104 -4.98633,-16.33203 -1.09306,-7.8463 -4.43284,-14.39924 -8.82031,-17.30274 -4.15987,-2.75289 -9.58696,-3.88302 -16.33789,-3.40039 -14.89074,1.06456 -28.37016,-3.2753 -48.49609,-15.615234 -0.55003,-0.33722 -2.09768,-1.211256 -3.44141,-1.941406 -8.10397,-4.40348 -28.42595,-18.792486 -33.59961,-23.791016 -3.4496,-3.33283 -6.30754,-7.059993 -8.65234,-11.283203 -4.43246,-7.98327 -7.34687,-11.309498 -11.98438,-13.673828 -3.31256,-1.68885 -12.20281,-1.846556 -16.07226,-0.285156 -4.33885,1.75081 -7.1926,2.993133 -8.40626,3.658203 -0.63669,0.34891 -1.68734,0.639531 -2.33398,0.644531 -0.64664,0.0055 -2.37513,0.442323 -3.8418,0.970703 -3.79144,1.36595 -22.8139,1.35889 -30.33398,-0.01172 -15.58383,-2.84026 -17.3862,-3.202774 -26.33398,-5.283204 -11.84912,-2.755001 -22.75835,-6.160815 -28.68946,-8.957031 -2.21352,-1.043564 -6.86416,-4.192287 -10.33398,-6.996093 -8.20554,-6.630556 -11.90059,-8.400391 -17.54492,-8.400391 z m -0.40235,12.667969 c 4.28381,0 7.69721,4.877907 11.19727,16 4.23969,13.47241 6.11037,17.428851 11.92773,25.238281 4.4298,5.94671 6.54272,7.981705 12.17969,11.728515 4.54897,3.023641 10.95917,5.459287 19.33398,7.347657 2.75,0.62008 6.71948,1.554439 8.82227,2.074219 7.73573,1.912176 25.27064,0.942632 31.51172,-1.742188 6.20319,-2.66852 7.94106,-3.619191 11.46679,-6.269531 5.54017,-4.1646 11.88573,-11.505838 17.90235,-20.710938 1.43796,-2.2 4.02715,-5.424355 5.75586,-7.166015 2.66735,-2.68735 3.52726,-3.163332 5.67578,-3.144532 3.0473,0.0267 5.32812,1.74536 6.3418,4.78125 0.43764,1.31069 0.78332,8.778407 0.85742,18.529297 0.13121,17.27545 0.1373,17.323362 4.01172,27.999999 3.79486,10.45741 10.63036,17.40511 27.02148,27.4668 12.96838,7.96064 19.68547,10.02897 32.63281,10.04687 8.2014,0.0113 9.44368,-0.15212 14,-1.83398 6.23646,-2.30203 10.59048,-4.69172 18.66602,-10.24414 3.48333,-2.395 7.59593,-5.20966 9.13867,-6.25586 1.69606,-1.15024 4.08333,-2.05354 6.03906,-2.28516 2.80014,-0.33164 3.49369,-0.16 5.17383,1.28516 1.717,1.47692 1.93467,2.08769 1.88867,5.29101 -0.0547,3.77972 -1.35573,8.13538 -4.92773,16.49415 -4.47666,10.47577 -5.98638,17.32994 -5.95508,27.03515 0.028,8.6435 1.08159,13.60645 4.2461,19.99024 4.49833,9.07442 15.38489,22.90566 22.52343,28.61718 11.7994,9.44069 24.61015,13.56474 36.54102,11.76367 7.4832,-1.12961 10.5874,-1.75122 15,-3.00781 2.2,-0.62651 6.46901,-1.70091 9.48828,-2.38672 6.78873,-1.54198 9.59962,-0.87464 11.71875,2.7793 1.34683,2.3224 1.3482,2.3576 0.0742,5.46094 -0.70534,1.71842 -3.16309,5.29903 -5.46289,7.95508 -11.42093,13.18998 -14.66832,17.3771 -16.72852,21.58398 -5.35087,10.9263 -5.72578,12.45493 -5.70508,23.24414 0.0149,7.71381 0.27891,10.20159 1.51758,14.33399 0.82433,2.75 1.75667,5.9 2.07227,7 5.53267,19.28361 16.96413,33.81743 30.75,39.09375 7.5334,2.88332 10.49268,3.41666 29.17968,5.26367 9.64141,0.95295 12.76172,2.88507 12.76172,7.90429 0,1.84521 -0.5761,2.85184 -2.91796,5.09571 -1.60493,1.53782 -3.78059,3.23047 -4.83399,3.76172 -1.05334,0.53126 -3.71604,1.97675 -5.91601,3.21289 -2.20002,1.23614 -4.90001,2.69502 -6,3.24023 -11.54315,5.72132 -23.50755,18.33293 -26.65235,28.09375 -0.64973,2.01667 -1.48391,4.41732 -1.85351,5.33399 -0.36966,0.91666 -0.98903,7.16214 -1.37696,13.8789 -0.83167,14.39765 -0.15582,22.39507 2.57032,30.39844 5.00198,14.68467 12.24201,22.06046 30.16601,30.73437 14.79394,7.15921 14.83302,7.18359 17.00195,10.30274 2.14954,3.09135 1.12706,6.21916 -2.85546,8.74219 -1.99942,1.26667 -9.78013,3.27539 -12.6836,3.27539 -4.2012,0 -16.58977,2.57034 -21.64844,4.49023 -11.5952,4.40067 -19.97489,11.06262 -25.60156,20.35547 -1.50247,2.48146 -2.73242,4.6476 -2.73242,4.81445 0,0.16686 -0.72963,1.88725 -1.62109,3.82227 -7.56954,16.42929 -9.9671,28.22468 -8.10157,39.85156 1.979,12.33438 6.27573,19.64461 19.25,32.75781 8.35093,8.44039 10.47266,11.40983 10.47266,14.64844 0,1.91168 -0.45131,2.95952 -1.82617,4.23438 -1.61614,1.4986 -2.39848,1.69336 -6.79102,1.69336 -2.73033,0 -6.78246,-0.42202 -9.00586,-0.9375 -12.75113,-2.95623 -14.61354,-3.21487 -22.86914,-3.16407 -16.58733,0.10208 -25.56614,3.94708 -37.50781,16.0586 -14.20853,14.41064 -19.34211,23.05034 -22.28711,37.51367 -0.5754,2.82627 -1.04687,6.21707 -1.04687,7.53516 0,3.68205 2.58212,14.54864 4.59179,19.32617 0.56786,1.34987 1.45399,3.30732 5.58399,12.33398 3.47513,7.59547 4.25519,11.23636 2.94726,13.76563 -2.72694,5.27327 -8.36964,4.40009 -20.12304,-3.11524 -6.45142,-4.12514 -14.82277,-8.58885 -18,-9.59765 -9.12586,-2.89766 -10.67888,-3.16532 -18.59961,-3.19532 -7.161,-0.0271 -8.76241,0.18538 -13.43165,1.78711 -6.6195,2.2708 -18.08768,7.95971 -25.7539,12.77344 -5.77696,3.62747 -14.17192,12.77098 -17.66992,19.24805 -3.99162,7.39113 -6.01197,17.6979 -5.30469,27.0625 0.23283,3.08274 0.61338,9.65596 0.8457,14.60742 l 0.42383,9.00391 -2.02148,2.1621 c -1.63858,1.75406 -2.535,2.16407 -4.73047,2.16407 -2.45051,0 -3.14185,-0.42867 -7.25391,-4.5 -2.49975,-2.475 -6.39985,-6.91514 -8.66797,-9.86914 -9.12252,-11.881 -16.14321,-17.46 -27.83593,-22.11914 -6.71763,-2.67673 -21.0808,-2.74703 -36.66602,-0.18165 -6.14599,1.01162 -8.71785,1.90039 -16.86524,5.82813 -6.61056,3.1868 -8.20096,4.30381 -13,9.13281 -3.00738,3.02613 -5.9769,6.52458 -6.5996,7.77344 -2.84943,5.71453 -4.47561,9.47959 -4.87305,11.28906 -0.23736,1.08073 -0.70842,2.13658 -1.04688,2.34571 -0.33845,0.2092 -0.61523,0.99782 -0.61523,1.75195 0,0.75414 -0.43818,2.76174 -0.97461,4.46094 -0.53643,1.6992 -1.45364,4.88789 -2.03711,7.08789 -1.63772,6.17506 -3.41693,9.5409 -5.81641,11.0039 -2.53485,1.54553 -2.9653,1.58673 -5.10546,0.48633 -3.2665,-1.6796 -5.443,-5.51218 -8.8086,-15.51758 -4.5281,-13.46126 -7.79716,-20.67531 -10.90039,-24.05664 -0.37961,-0.4136 -2.03945,-2.40497 -3.68945,-4.42383 -6.35898,-7.78067 -14.9395,-12.47711 -28.66797,-15.69531 -11.52728,-2.7022 -13.28646,-2.93662 -21.94336,-2.91992 -10.41607,0.0198 -15.84132,1.19488 -23.98438,5.19922 -6.71478,3.30206 -13.588,10.02761 -21.72656,21.25781 -9.22604,12.73079 -11.19324,14.43536 -15.43359,13.37109 -4.60209,-1.15498 -5.93528,-6.2239 -5.33008,-20.25976 0.67376,-15.62594 -0.93249,-24.66443 -6.36523,-35.8125 -3.77717,-7.75086 -11.0253,-14.2822 -25.55078,-23.02148 -6.91893,-4.16274 -9.49247,-5.44549 -13.66602,-6.81836 -7.85245,-2.58293 -9.22436,-2.7926 -18.33203,-2.7793 -8.65444,0.0124 -9.69068,0.15131 -14.22266,1.91211 -7.06755,2.74587 -11.15541,5.06745 -20.61133,11.70312 -10.99567,7.71613 -15.28477,8.93085 -18.59765,5.26172 -2.28124,-2.5266 -1.48794,-8.90342 2.22461,-17.89062 1.41307,-3.42067 1.92917,-4.70182 3.09375,-7.66602 7.1161,-18.1126 5.81642,-35.45372 -3.70703,-49.43945 -3.58141,-5.25946 -11.1645,-14.77664 -14.51368,-18.21485 -2.96398,-3.04277 -10.16359,-8.67968 -11.08593,-8.67968 -0.26179,0 -0.95043,-0.39825 -1.5293,-0.88672 -1.60006,-1.35019 -7.83649,-3.83621 -13.05078,-5.20117 -7.83068,-2.04988 -16.46167,-1.37305 -30.66797,2.40429 -11.732747,3.11965 -15.127913,3.53733 -18.017579,2.22071 -1.844614,-0.84046 -3.653108,-3.65459 -3.642578,-5.66993 0.01165,-2.23398 3.807718,-7.83808 10.080078,-14.8789 10.521499,-11.81052 13.007929,-15.79808 17.654299,-28.32031 0.97954,-2.63995 1.23637,-5.20613 1.23437,-12.33399 -10e-4,-5.17277 -0.32693,-9.8505 -0.76757,-11 -0.42168,-1.1 -1.27271,-3.8 -1.89063,-6 -1.94424,-6.92215 -5.096,-15.67883 -6.78711,-18.85937 -5.532153,-10.40457 -13.168228,-18.44286 -21.546874,-22.67774 -8.07046,-4.0791 -11.566345,-4.84954 -30.648438,-6.75586 -11.71571,-1.17042 -14.667969,-2.74308 -14.667969,-7.82226 0,-2.4573 0.381045,-3.26387 2.570313,-5.45313 1.413078,-1.41308 3.438078,-3.01337 4.5,-3.55469 19.303108,-9.8399 26.26169,-14.87955 32.898437,-23.83203 6.614647,-8.92266 8.41585,-14.57874 9.466797,-29.71093 1.355833,-19.52195 -0.882652,-30.90428 -8.382812,-42.62891 -3.053773,-4.77381 -7.184397,-8.80701 -12.91211,-12.60352 -4.920855,-3.26169 -6.240981,-3.96426 -17.521484,-9.34179 -4.264134,-2.03276 -8.662816,-4.64781 -9.833984,-5.84571 -4.629428,-4.73509 -1.664877,-9.90747 6.925781,-12.08593 2.542525,-0.64475 5.372396,-1.16902 6.289062,-1.16602 4.965909,0.0182 21.27224,-3.68712 26,-5.9082 10.182,-4.78349 15.95845,-9.46767 20.908203,-16.95508 3.790605,-5.73399 4.673688,-7.54789 9.638668,-19.79883 3.42739,-8.45695 4.79025,-15.24411 4.78125,-23.79492 -0.017,-15.31017 -4.54029,-24.51537 -19.437496,-39.55469 -9.17142,-9.2589 -10.55664,-11.18219 -10.55664,-14.66015 0,-2.4094 0.355914,-3.42643 1.617187,-4.61133 1.413947,-1.32834 2.275285,-1.51199 6.833985,-1.45899 2.868593,0.0333 8.065537,0.6765 11.548824,1.42969 11.59598,2.50737 14.75957,2.83488 23.33399,2.40625 16.55318,-0.82747 23.60177,-4.40224 37.25195,-18.88672 11.09586,-11.77405 16.01234,-19.80377 18.73047,-30.59179 1.50041,-5.9551 1.77348,-15.12655 0.59961,-20.10157 -0.99553,-4.21914 -5.50932,-15.94977 -8.5332,-22.17578 -4.95976,-10.21189 -5.23861,-15.30361 -0.94532,-17.25976 4.04402,-1.84258 7.10166,-0.74541 20.5625,7.38085 14.53108,8.77237 21.95635,11.2129 34.12696,11.2129 9.84636,0 15.9894,-2.02268 31.95508,-10.51954 13.40411,-7.1336 23.53685,-18.36299 27.80273,-30.81445 1.9691,-5.747477 2.76437,-15.335329 1.89648,-22.837889 -0.43442,-3.75539 -0.78715,-9.963039 -0.78515,-13.792969 0.004,-6.64627 0.0851,-7.047401 1.79492,-8.832031 1.39691,-1.45806 2.39834,-1.871094 4.54687,-1.871094 3.67076,0 6.66082,2.595411 14.81836,12.863281 9.68833,12.19467 14.9231,16.800148 24.17774,21.267578 8.0145,3.8688 9.64798,4.205547 20.33203,4.185547 33.97744,-0.06366 54.8855,-12.251197 62.87305,-36.648437 1.19904,-3.66238 2.31943,-7.533229 4.24414,-14.667969 2.22022,-8.230207 5.07378,-12.332031 8.57812,-12.332031 z m 39.75586,17.666015 4.60742,0.205078 c 2.53436,0.11236 5.80873,0.520719 7.27539,0.908203 1.46667,0.387482 4.16667,0.939986 6,1.228516 1.83334,0.28853 5.88334,1.03398 9,1.65625 3.11667,0.62228 6.86527,1.363614 8.33204,1.646484 3.00958,0.58045 7.48206,1.679213 13.25976,3.257813 l 3.92578,1.072266 -0.41601,6.791015 c -0.48297,7.89355 -1.64683,10.502358 -6.0293,13.517578 -3.88242,2.67118 -6.987,3.85577 -13.18359,5.03125 -6.28269,1.1918 -6.08893,1.196745 -12.55469,-0.296875 -10.11388,-2.33634 -18.63124,-7.386695 -21.3086,-12.634765 -1.73776,-3.40619 -1.78102,-11.111997 -0.0976,-17.716797 z m -85.44141,2.400391 c 0.61548,-0.01087 1.14457,-0.0012 1.54102,0.03125 2.84273,0.23283 2.90116,0.287244 4.13086,3.902344 1.72023,5.05717 2.23911,9.915879 1.39453,13.037109 -1.43094,5.28826 -10.0662,12.83818 -18.12109,15.84375 -3.40465,1.27038 -15.71946,2.001959 -20.6211,1.224609 -1.65,-0.26167 -4.3827,-1.148463 -6.07226,-1.970703 -5.82867,-2.83659 -8.31171,-7.075706 -9.88672,-16.878906 -1.1468,-7.13793 -1.03724,-7.751528 1.45898,-8.242187 7.84179,-1.54138 20.12187,-3.633724 27.16602,-4.626954 3.85,-0.54284 9.40065,-1.332429 12.33398,-1.755859 2.20001,-0.317572 4.82936,-0.531852 6.67578,-0.564453 z m 216.17969,33.755859 c 2.14593,0.23128 24.6316,13.443262 38.67578,22.724609 5.32694,3.52041 5.51435,3.73092 5.08203,5.69922 -0.24684,1.12398 -0.69319,2.50241 -0.99023,3.06445 -0.29704,0.56203 -1.23123,2.48646 -2.07617,4.27539 -2.25056,4.76498 -5.59594,7.34128 -10.77149,8.29493 -10.79657,1.9893 -20.31709,-0.74921 -29.62109,-8.52344 -5.3978,-4.51029 -8.49128,-8.85552 -9.89062,-13.88867 l -1.14649,-4.12305 1.77539,-4.507814 c 2.6202,-6.65537 7.13526,-13.212605 8.96289,-13.015625 z m -340.5,4.177735 c 0.25356,0 2.30244,2.588383 4.55274,5.751953 3.98437,5.6014 4.09179,5.863164 4.09179,10.013671 0,5.43476 -2.81659,11.53431 -7.83203,16.95898 -3.27642,3.54378 -10.58141,8.60743 -12.41601,8.60743 -0.45038,0 -1.10479,0.26767 -1.45313,0.59375 -0.34833,0.32606 -2.32924,1.07541 -4.40234,1.66601 -4.32325,1.23163 -12.77346,1.33618 -15.23047,0.1875 -4.83738,-2.26153 -6.89765,-4.72105 -11.95117,-14.2539 -0.81831,-1.54366 -1.31805,-3.34366 -1.10938,-4 0.33053,-1.0396 3.71225,-3.14242 20.01953,-12.45313 4.61389,-2.634307 25.15931,-13.072264 25.73047,-13.072264 z m 172.97657,11 c -19.33693,0 -32.9743,0.729697 -44,2.355464 -11.98632,1.76745 -27.62032,4.68501 -34,6.34571 -2.20002,0.57269 -4.74935,1.20073 -5.66602,1.39453 -0.91667,0.19381 -3.01602,0.74255 -4.66602,1.2207 -1.65,0.47815 -4.8,1.38308 -7,2.00977 -10.83566,3.08661 -25.06775,8.23036 -36,13.00976 -1.46666,0.6412 -4.31731,1.869 -6.33398,2.73047 -8.27695,3.5357 -29.16837,14.53997 -35.54688,18.72266 -2.13427,1.39954 -4.0207,2.54297 -4.1914,2.54297 -0.26061,0 -17.88854,11.88339 -19.92774,13.43359 -21.83174,16.59664 -43.81569,37.15739 -57.98632,54.23438 -1.82516,2.19949 -3.48865,4.1487 -3.69727,4.33203 -0.20861,0.18334 -1.85712,2.28464 -3.66406,4.66797 -1.80693,2.38333 -3.84093,4.93267 -4.51953,5.66601 -0.6786,0.73333 -2.61546,3.43333 -4.30469,6 -1.68923,2.56666 -3.89611,5.73445 -4.9043,7.03906 -2.38893,3.09131 -13.50194,21.37157 -17.40234,28.62696 -6.66571,12.39932 -10.77446,21.00612 -14.95899,31.33398 -1.26277,3.11667 -2.5429,6.26667 -2.8457,7 -0.3028,0.73334 -0.9197,2.23399 -1.36914,3.33399 -1.3242,3.24097 -7.87638,23.57255 -9.23828,28.66601 -0.39216,1.46667 -1.15809,4.31732 -1.70117,6.33399 -1.6019,5.94835 -4.1435,18.05965 -5.66797,27 -5.912053,34.67138 -5.925067,75.56256 -0.0352,110 2.22484,13.00749 6.39067,31.30467 9.03125,39.66601 4.86711,15.41166 9.30994,27.92658 10.94336,30.82422 0.3589,0.6367 0.65235,1.44105 0.65235,1.78711 0,0.79236 3.97627,9.65374 9.14843,20.38867 1.36733,2.83793 6.34629,12.23606 8.82813,16.66602 5.7524,10.26776 14.50943,23.66039 22.66992,34.66797 27.17798,36.66 63.6548,69.00122 103.02148,91.34375 10.09038,5.72674 36.17254,18.32226 37.94141,18.32226 0.4357,0 1.07745,0.25057 1.42578,0.55664 0.34833,0.30607 2.1315,1.09489 3.96485,1.75195 1.83332,0.65716 4.23398,1.59104 5.33398,2.07618 2.07433,0.9148 16.16725,5.56246 22,7.25586 1.83333,0.53227 4.83267,1.40498 6.66602,1.93945 4.53228,1.3212 16.17227,4.05417 22.66796,5.32227 12.8477,2.50806 18.53104,3.34516 30.33204,4.46289 3.84998,0.36467 9.40065,0.9163 12.33398,1.22656 17.99433,1.90347 58.71629,-0.14096 78.66602,-3.94922 7.27192,-1.3882 16.88749,-3.38187 21,-4.35547 2.38333,-0.5642 5.38463,-1.27446 6.66796,-1.57812 1.28334,-0.3036 4.13202,-1.07148 6.33204,-1.70508 2.2,-0.63367 5.35,-1.53987 7,-2.01367 3.89318,-1.11793 15.94754,-5.17122 19,-6.38868 0.73332,-0.29247 3.73463,-1.47763 6.66796,-2.63476 11.33891,-4.47307 15.31985,-6.27983 28,-12.70117 6.23334,-3.1566 12.38269,-6.36253 13.66602,-7.125 1.28333,-0.76246 3.47508,-2.00996 4.86914,-2.77149 8.27138,-4.51833 29.01324,-18.83126 39.12695,-27 27.59847,-22.29099 52.91781,-50.1316 70.96875,-78.03515 2.84633,-4.4 5.74473,-8.81317 6.43946,-9.80664 0.69467,-0.99349 1.26172,-1.97423 1.26172,-2.17969 0,-0.20547 0.70675,-1.49362 1.56835,-2.86133 0.8616,-1.36771 2.6282,-4.43697 3.92774,-6.82031 23.55766,-43.20495 36.64813,-87.1036 40.55273,-136 0.86774,-10.86684 0.48685,-46.7693 -0.61328,-57.82813 -1.92813,-19.38143 -6.86004,-44.80938 -11.73437,-60.5039 -0.45554,-1.46667 -1.36358,-4.46797 -2.01758,-6.66797 -1.20673,-4.05939 -3.67031,-11.28544 -5.39844,-15.83203 -3.42707,-9.0162 -3.50652,-9.21427 -5.32812,-13.5 -5.73707,-13.49728 -13.78036,-29.49629 -19.60743,-39 -0.3372,-0.55 -1.21825,-2.11638 -1.95898,-3.48047 -4.06307,-7.48203 -18.97057,-28.68215 -27.55664,-39.1875 -16.476,-20.15902 -37.68975,-40.43571 -58.79688,-56.20313 -7.29781,-5.45161 -25.3761,-17.79687 -26.0625,-17.79687 -0.15545,0 -2.16281,-1.14909 -4.46093,-2.55469 -11.1952,-6.8473 -28.87975,-15.69489 -41.51367,-20.77148 -2.93336,-1.17868 -6.23204,-2.52452 -7.33204,-2.99024 -1.1,-0.46572 -3.50065,-1.3667 -5.33398,-2.00195 -1.83333,-0.63525 -3.93268,-1.39803 -4.66602,-1.69531 -0.73333,-0.29731 -1.93463,-0.69056 -2.66796,-0.87305 -1.2827,-0.31918 -4.54014,-1.42413 -7.33204,-2.48633 -3.37188,-1.28285 -20.29414,-5.82716 -26.66796,-7.16211 -30.47175,-6.382047 -43.9011,-7.796874 -74,-7.796874 z m 1.41601,11.234374 c 16.27018,0.0853 32.6159,1.35492 48.58399,3.81445 12.24596,1.88623 30.87263,6.04527 40,8.93164 1.46666,0.46381 4.46796,1.37574 6.66796,2.0254 2.2,0.64963 4.59865,1.41794 5.33204,1.70703 0.73333,0.2891 3.14601,1.12481 5.36132,1.85742 3.65646,1.20921 5.24699,1.80223 9.30664,3.47851 0.73334,0.3028 3.88334,1.58489 7,2.84766 12.11044,4.90677 26.52704,11.99048 36.33204,17.85156 1.1,0.65755 3.05065,1.72642 4.33398,2.375 2.47893,1.2528 22.51232,14.5182 27,17.87891 2.68589,2.01139 8.8624,6.86654 11.33398,8.9082 0.73334,0.60577 4.03201,3.33177 7.33204,6.0586 7.47509,6.17678 27.69387,26.3698 34.3496,34.30664 19.00287,22.66066 31.39973,41.26572 43.5918,65.41992 4.2116,8.3438 5.56298,11.21503 8.76758,18.63672 3.85533,8.92879 10.27857,26.94651 12.5957,35.33398 0.6078,2.2 1.50534,5.35 1.99414,7 1.67753,5.66256 5.21992,22.16718 7.01172,32.66602 4.13887,24.25103 5.06635,63.77235 2.0332,86.66797 -2.45091,18.50168 -3.67319,25.61112 -6.36132,37 -0.6058,2.56667 -1.32384,5.71667 -1.59571,7 -0.2718,1.28334 -0.82383,3.38268 -1.22656,4.66601 -0.4028,1.28333 -1.20647,3.98333 -1.78515,6 -2.01635,7.02564 -7.28616,22.50949 -8.9629,26.33399 -0.32153,0.73334 -1.11217,2.68203 -1.75586,4.33203 -3.48012,8.92078 -10.08666,23.00969 -14.625,31.18945 -5.79507,10.44476 -6.64454,11.91693 -9.81054,16.98047 -32.7774,52.42197 -78.95351,94.00044 -133.88672,120.55664 -9.38479,4.53686 -11.21146,5.38257 -15,6.9375 -4.28732,1.75967 -5.16965,2.1132 -8.33398,3.34766 -1.65001,0.64367 -3.94419,1.57987 -5.09961,2.08007 -1.15541,0.5002 -2.52029,0.90821 -3.03321,0.90821 -0.51292,0 -1.21807,0.23992 -1.5664,0.53125 -0.34834,0.29134 -2.43282,1.0803 -4.63282,1.7539 -2.2,0.67353 -5.2013,1.60756 -6.66796,2.07618 -2.3533,0.75193 -5.94563,1.79056 -12.66602,3.6621 -6.08713,1.6952 -11.62751,2.96903 -23,5.28516 -2.98418,0.60774 -11.48754,1.9326 -21.66602,3.375 -2.93333,0.41573 -12.23463,1.16938 -20.66796,1.67578 -16.82246,1.01 -19.17234,1.02552 -34.33204,0.22266 -22.963,-1.21614 -48.95466,-5.32199 -67,-10.58399 -1.1,-0.32074 -3.12876,-0.78614 -4.50781,-1.0332 -1.37905,-0.247 -2.67213,-0.71393 -2.87305,-1.03906 -0.20092,-0.32507 -1.08616,-0.5918 -1.96875,-0.5918 -0.88258,0 -2.59082,-0.42482 -3.79492,-0.94336 -1.20411,-0.51853 -4.1992,-1.56 -6.65625,-2.3164 -6.14418,-1.89134 -22.05688,-8.01063 -22.83203,-8.7793 -0.34833,-0.34546 -1.04358,-0.62695 -1.54492,-0.62695 -1.35279,0 -22.80996,-10.57684 -30.49023,-15.0293 -3.66668,-2.12567 -7.26667,-4.19918 -8,-4.60938 -10.97984,-6.14153 -30.68556,-20.31889 -44,-31.65429 -8.78614,-7.48013 -28.76485,-27.48571 -34.99415,-35.04102 -2.72082,-3.3 -5.12295,-6.15064 -5.33789,-6.33398 -0.21494,-0.18333 -2.54955,-3.18269 -5.18945,-6.66602 -2.63989,-3.48334 -5.10226,-6.69494 -5.4707,-7.13672 -0.96171,-1.15314 -13.02624,-19.14163 -13.58789,-20.25976 -0.25868,-0.51498 -0.83535,-1.5362 -1.2793,-2.26953 -1.09144,-1.80287 -5.10818,-8.71819 -6.9707,-12 -3.08088,-5.42858 -14.83594,-29.74646 -14.83594,-30.69141 0,-0.24229 -0.408,-1.38561 -0.9082,-2.54102 -0.5002,-1.15541 -1.4422,-3.45156 -2.0918,-5.10156 -0.6496,-1.65 -1.58964,-3.9442 -2.08984,-5.09961 -0.5002,-1.15542 -0.91016,-2.43586 -0.91016,-2.84375 0,-0.4079 -0.27326,-1.26175 -0.60742,-1.89844 -0.67545,-1.28697 -1.95449,-5.12366 -3.72071,-11.1582 -0.6439,-2.2 -1.43287,-4.52151 -1.7539,-5.1582 -0.32104,-0.63669 -0.58399,-1.57698 -0.58399,-2.08985 0,-0.51287 -0.42538,-2.392 -0.94531,-4.17578 -1.72952,-5.93369 -2.59194,-9.21741 -3.12891,-11.91015 -0.29246,-1.46667 -0.99315,-4.91602 -1.55664,-7.66602 -1.56607,-7.64294 -3.04498,-16.46202 -3.6875,-22 -0.31906,-2.75 -0.95318,-7.7 -1.41015,-11 -1.34299,-9.69842 -1.1666,-53.70099 0.26172,-65.33398 1.31236,-10.68861 2.96496,-21.59585 3.78906,-25 0.31068,-1.28333 0.76492,-3.68203 1.00977,-5.33203 0.24478,-1.65 0.74384,-4.2013 1.10742,-5.66797 3.3304,-13.43456 6.30005,-24.4349 7.19922,-26.66602 0.29554,-0.73333 1.35185,-3.88333 2.34765,-7 5.63813,-17.64628 18.86039,-46.03357 29.6543,-63.66601 13.96408,-22.81108 30.5492,-43.53385 50.46094,-63.04688 34.2402,-33.55456 74.61627,-58.5161 119.89843,-74.12891 2.56667,-0.88496 5.71667,-1.97796 7,-2.42773 6.9072,-2.42079 26.74923,-7.40969 38.33204,-9.63672 19.70348,-3.78841 40.4972,-5.63506 61.41601,-5.52539 z m 274.76172,51.56641 c 0.0957,-8.8e-4 0.18313,0.007 0.26367,0.0254 0.60946,0.13626 3.01012,2.55596 5.33399,5.37695 4.9244,5.97776 6.63496,8.02494 7.56835,9.05274 0.37194,0.40951 1.72194,2.0934 3,3.74218 1.27807,1.64878 2.81727,3.59748 3.41993,4.33203 6.689,8.15251 12.30165,15.76429 12.79492,17.35157 0.48286,1.55349 -4.94339,7.84679 -9.15039,10.61328 -2.11247,1.38909 -3.34749,1.69237 -6.66602,1.63867 -12.98233,-0.21006 -24.93199,-9.63307 -30.71679,-24.22461 -2.13387,-5.38239 -2.40962,-10.7241 -0.75196,-14.55273 1.92369,-4.44304 11.93704,-13.32838 14.9043,-13.35547 z m -556.69531,5.99414 3.85156,2.20508 c 8.38309,4.79632 11.00409,8.56253 10.99609,15.80664 -0.006,5.30259 -1.6846,11.32151 -4.55468,16.33789 -3.68137,6.43436 -12.15612,13.92579 -18.63282,16.4707 -4.30845,1.69293 -9.59238,1.75675 -12.96875,0.1582 -1.3713,-0.64925 -4.03801,-2.51455 -5.92578,-4.14453 -1.88778,-1.62997 -4.3559,-3.74765 -5.48633,-4.70703 -1.80795,-1.53438 -1.96644,-1.9362 -1.3164,-3.33398 1.32182,-2.84228 17.76791,-21.87317 28.96289,-33.51563 z m 631.8789,104.43945 c 1.44323,0.0435 2.09241,0.85795 2.50391,2.61914 0.30207,1.29253 1.61515,4.94745 5.56055,15.47852 0.54947,1.46667 1.25317,3.56797 1.5625,4.66797 0.54707,1.945 1.68612,5.29206 2.72265,8 0.28073,0.73333 1.02353,2.98333 1.65039,5 0.62687,2.01666 1.52893,4.86536 2.00586,6.33203 0.47693,1.46667 1.05689,3.88996 1.28906,5.38476 l 0.42383,2.71875 -5.59179,2.78125 c -7.24366,3.60531 -11.05151,3.76811 -16.48828,0.70313 -8.68269,-4.89484 -14.93927,-13.71802 -16.73047,-23.58789 -1.33133,-7.33596 -1.44347,-11.92782 -0.375,-15.52149 2.16053,-7.26697 5.70542,-10.01331 17.89062,-13.85937 1.55833,-0.49186 2.71024,-0.74288 3.57617,-0.7168 z m -704.388669,7.35352 c 2.243638,0.0425 8.946919,1.82825 12.015625,3.30664 5.483954,2.64197 8.679688,9.99802 8.679688,19.97851 0,7.05631 -2.235237,13.82393 -6.90625,20.91406 -3.457007,5.24742 -6.176304,7.81829 -10.09375,9.54297 -4.557007,2.00628 -6.862175,1.99234 -13.306641,-0.084 -3.284854,-1.05824 -6.269332,-2.22246 -6.632812,-2.58594 -0.363486,-0.36348 -1.20935,-0.66015 -1.88086,-0.66015 -2.200264,0 -2.158019,-2.78691 0.128907,-8.33399 0.302334,-0.73333 1.064259,-2.83268 1.693359,-4.66601 1.083146,-3.15653 7.763347,-20.47929 8.998047,-23.33399 0.31718,-0.73334 1.017713,-2.38268 1.55664,-3.66601 2.364333,-5.63019 4.494099,-9.95379 5.083985,-10.31836 0.114948,-0.0711 0.343543,-0.10035 0.664062,-0.0937 z M 809.11914,400.49805 c 5.89666,0 7.21079,0.1839 7.54492,1.05468 0.68214,1.77761 0.44361,35.46901 -0.30859,43.61329 -0.3894,4.21667 -1.06372,7.99357 -1.49805,8.39453 -0.43427,0.40096 -2.77362,1.07596 -5.19922,1.5 -2.4256,0.42404 -5.27625,0.75051 -6.33398,0.72461 -8.99467,-0.22025 -18.25586,-14.16488 -18.25586,-27.48633 0,-7.22125 2.36115,-16.39895 5.26562,-20.4668 4.1532,-5.81674 8.03922,-7.33398 18.78516,-7.33398 z m -751.968749,6.73828 c 2.215301,0.0684 4.14897,0.48388 5.726562,1.24609 7.06492,3.4134 13.421503,15.65975 13.501953,26.01563 0.02655,3.41712 -1.527718,11.86166 -2.822265,15.33398 -2.488213,6.67407 -6.435862,10.63032 -11.853516,11.88086 -4.008109,0.92522 -13.629019,0.97032 -15.865234,0.0742 l -1.564453,-0.62695 0.339843,-23.4961 c 0.186594,-12.92377 0.591619,-24.67588 0.900391,-26.11523 0.537676,-2.50639 0.716017,-2.65403 4.224609,-3.47266 2.700374,-0.63005 5.196808,-0.90828 7.41211,-0.83984 z m 374.917969,6.60351 c -7.12836,0 -13.63672,6.67817 -13.63672,13.99219 0,6.0579 4.58413,11.97017 10.27344,13.24805 8.81904,1.98086 17.00195,-4.3946 17.00195,-13.24805 0,-7.31402 -6.51031,-13.99219 -13.63867,-13.99219 z m 353.67383,114.84961 c 1.07266,-6.6e-4 2.24936,0.26332 4.36133,0.79297 2.47207,0.61998 4.97685,1.37157 5.56445,1.66992 0.58753,0.29834 2.41636,1.07928 4.06641,1.73438 4.22811,1.67871 4.39559,1.91056 3.41406,4.7793 -2.4756,7.23584 -5.44386,15.29902 -6.8086,18.5 -0.31266,0.73333 -1.18396,2.98333 -1.9375,5 -0.75353,2.01667 -1.62904,4.26667 -1.94531,5 -0.31627,0.73333 -1.57037,3.73267 -2.78711,6.66601 -1.21673,2.93333 -2.82652,6.53333 -3.57812,8 -1.09287,2.13273 -1.76613,2.69446 -3.36133,2.80274 -1.097,0.0745 -2.59479,-0.12943 -3.32813,-0.45313 -0.73333,-0.3237 -2.02596,-0.60908 -2.87109,-0.63476 -2.2412,-0.0683 -6.91639,-2.35677 -8.49219,-4.15626 -5.15327,-5.88468 -6.64379,-19.17137 -3.21679,-28.67187 3.6596,-10.1451 10.41864,-18.1014 17.1875,-20.23047 1.69103,-0.53201 2.65975,-0.79817 3.73242,-0.79883 z M 76.130859,535.5332 c 3.773727,-0.0374 5.574444,0.71769 10.908203,4.57813 4.611554,3.33773 6.174124,5.08942 8.964844,10.05469 4.303754,7.65726 6.506714,18.39694 5.103514,24.87109 -1.525687,7.03937 -5.07695,10.80397 -13.078123,13.86133 -9.304527,3.5554 -9.985229,3.43619 -11.916016,-2.06641 -0.643293,-1.83334 -1.592015,-4.27818 -2.107422,-5.43359 -0.515407,-1.15541 -0.9375,-2.43391 -0.9375,-2.8418 0,-0.40789 -0.293143,-1.26369 -0.652343,-1.90039 -1.619433,-2.87048 -10.033574,-29.74159 -10.181641,-32.51563 l -0.166016,-3.0957 5.333985,-2.74023 c 4.122513,-2.11723 6.103262,-2.74539 8.728515,-2.77149 z M 726.2207,643.85938 c 5.87433,0.0364 8.12252,1.28918 17.47852,9.73242 l 2.32031,2.09179 -1.84765,2.66602 c -3.87434,5.59073 -21.68642,26.00051 -30.23829,34.64844 -1.541,1.55833 -2.891,2.82926 -3,2.82226 -0.74147,-0.0425 -7.18589,-4.2532 -9.60742,-6.27734 -3.75447,-3.13833 -4.92501,-5.98739 -4.91601,-11.95899 0.014,-9.21127 3.30976,-16.42171 11.00976,-24.08593 7.01746,-6.98484 12.27164,-9.67907 18.80078,-9.63867 z m -588.3164,5.63867 c 3.70749,0.009 8.04884,1.26788 12.95508,3.76757 13.43009,6.84267 23.24625,26.05084 18.27539,35.75977 -1.27757,2.49534 -5.41007,6.6905 -10.4961,10.6543 -3.11071,2.42427 -4.81743,2.69313 -6.26172,0.98633 -0.54298,-0.64167 -3.22808,-3.86797 -5.96679,-7.16797 -2.73871,-3.3 -5.53418,-6.5987 -6.21289,-7.33203 -1.36898,-1.47914 -12.05615,-15.25627 -15.96289,-20.57813 -1.375,-1.87307 -2.5,-3.86172 -2.5,-4.41992 0,-1.26476 7.67543,-9.04463 10.19531,-10.33399 1.75271,-0.89681 3.75011,-1.34109 5.97461,-1.33593 z m 491.98437,81.36328 c 2.61985,0.0409 5.07795,0.41122 6.51367,1.09765 2.69242,1.28726 5.92546,4.13354 7.42774,6.53907 2.24631,3.59687 5.90426,10.57362 5.9043,11.25976 -10e-6,0.8096 -2.10155,2.20758 -11.33204,7.53125 -10.14268,5.84973 -12.43615,7.10405 -23.08593,12.63672 -5.54693,2.88173 -10.64758,5.23438 -11.33399,5.23438 -0.6864,-0.003 -1.92151,-0.99388 -2.74609,-2.20508 -0.82458,-1.21126 -2.06695,-2.81286 -2.76172,-3.5586 -3.80376,-4.08286 -4.78726,-10.86604 -2.375,-16.38671 4.64664,-10.6342 12.70433,-17.15067 26.30273,-21.26954 2.08488,-0.6315 4.86648,-0.91979 7.48633,-0.8789 z m -390.94336,4.42578 c 3.95042,-0.0352 8.08195,0.51962 11.45899,1.71094 8.13508,2.8698 17.72495,10.97699 20.88476,17.65625 1.95361,4.1296 2.26387,8.06914 0.93555,11.86328 -0.7909,2.25913 -5.47786,10.39219 -7.38477,12.81445 -0.50515,0.64167 -1.03482,1.1613 -1.17773,1.15235 -0.27975,-0.0163 -6.19069,-3.20696 -11.59375,-6.25782 -5.35404,-3.02327 -18.08413,-10.8624 -25.83398,-15.9082 -5.31953,-3.4634 -7.16602,-5.02317 -7.16602,-6.05274 0,-2.50558 5.261,-12.30992 7.52539,-14.02539 2.49267,-1.88838 7.27245,-2.90783 12.35156,-2.95312 z m 264.17578,44.21094 c 9.31321,0 9.87296,0.0776 13.39453,1.85937 6.77671,3.42866 8.8868,7.09494 10.56641,18.35547 0.47424,3.17933 0.57665,5.77237 0.24024,6.07617 -0.32278,0.29147 -3.28791,1.0351 -6.58789,1.6543 -3.30003,0.61914 -7.4987,1.41245 -9.33204,1.76172 -1.83333,0.3492 -5.43333,0.93281 -8,1.29687 -2.56666,0.364 -7.66731,1.10443 -11.33398,1.64649 -9.64498,1.42587 -16.75677,1.95546 -17.14453,1.27539 -1.36827,-2.39973 -2.85547,-9.31179 -2.85547,-13.27539 0,-4.36073 0.17263,-4.91683 2.49609,-8.08203 2.64838,-3.6078 7.97413,-7.95784 11.83789,-9.66797 6.26237,-2.77187 6.99765,-2.90039 16.71875,-2.90039 z m -136.58789,0.33398 c 4.23387,0 13.63315,2.64492 18.53516,5.21485 10.10474,5.29737 13.24118,12.54197 10.40234,24.02343 -0.51172,2.06954 -1.1171,4.58738 -1.3457,5.59571 -0.42304,1.86594 -0.51668,1.89295 -4.72266,1.39648 -2.50107,-0.2952 -12.59205,-2.07721 -18.33398,-3.23828 -2.38333,-0.48193 -5.98333,-1.20781 -8,-1.61328 -2.01667,-0.40546 -5.01602,-1.05428 -6.66602,-1.44141 -1.65,-0.38714 -4.20131,-0.94135 -5.66796,-1.23242 -1.46668,-0.29113 -4.12629,-0.94069 -5.91211,-1.44336 l -3.24805,-0.91406 0.30273,-6.67383 c 0.32633,-7.193 1.10392,-9.4453 4.29883,-12.45898 3.94642,-3.72267 13.79972,-7.21485 20.35742,-7.21485 z" />
</svg>
